<svg width="200" height="94" viewBox="0 0 200 94" fill="none" xmlns="http://www.w3.org/2000/svg">
<path fill-rule="evenodd" clip-rule="evenodd" d="M81.6061 0.098175C72.8609 0.196382 65.8125 0.496082 65.4527 0.785622C65.3955 0.831339 58.9991 0.93632 51.2376 1.01929C32.133 1.22417 28.0574 1.37401 28.168 1.86928C28.237 2.18083 29.0158 2.26211 33.2228 2.39757C37.651 2.5398 42.4508 2.79124 43.7514 2.94786C47.0202 3.34154 51.3333 3.48038 64.7488 3.62515C78.6782 3.775 83.4077 3.90707 86.575 4.2364C91.1607 4.71304 106.798 4.71474 111.299 4.23979C114.452 3.90622 119.062 3.775 133.066 3.62092C142.636 3.51509 148.701 3.38471 150.515 3.24587C157.829 2.68541 160.148 2.54826 164.579 2.41196C169.538 2.25957 170.017 2.18422 169.515 1.64155C169.259 1.3647 162.911 1.19284 146.399 1.01759C138.703 0.935471 132.356 0.827953 132.295 0.77885C131.523 0.158285 106.36 -0.179513 81.6061 0.098175ZM108.519 0.245485C112.716 0.330146 117.879 0.471529 119.994 0.560423C122.108 0.649318 125.303 0.781388 127.092 0.853349C128.881 0.926158 135.03 1.05992 140.755 1.15136C151.858 1.3283 162.356 1.60345 164.296 1.76854L165.48 1.86928L163.469 1.98188C162.362 2.04453 160.153 2.1639 158.559 2.24856C155.876 2.39079 151.681 2.63123 145.251 3.01051C141.457 3.23402 132.385 3.4626 120.527 3.63362C114.801 3.71574 108.785 3.85374 107.159 3.94009C100.076 4.31514 98.7386 4.3507 96.2753 4.2254C94.8439 4.15259 92.3683 4.02475 90.7742 3.94094C89.1801 3.85712 83.2184 3.71997 77.5253 3.63616C64.8008 3.44821 55.6327 3.21963 52.5051 3.01136C49.9559 2.84204 44.0514 2.50339 39.197 2.24856C37.5378 2.16136 35.2749 2.04114 34.1688 1.98103L32.1577 1.87182L33.4004 1.76854C35.42 1.59921 45.7215 1.33084 57.0595 1.15136C62.8827 1.05908 68.9779 0.924466 70.6045 0.851657C86.2054 0.152358 96.0971 -0.00511152 108.519 0.245485ZM140.578 32.1051C139.999 32.8577 140.429 34.302 141.288 34.4908L141.761 34.595V35.3434C141.761 35.8005 141.7 36.14 141.604 36.2154C141.361 36.4059 141.282 36.8241 141.165 38.5512C141.097 39.5646 140.994 40.2444 140.885 40.401C140.599 40.8116 140.474 41.4093 140.353 42.9519C140.267 44.0541 140.172 44.5409 139.975 44.9008C139.772 45.2724 139.689 45.7279 139.605 46.9394C139.546 47.797 139.424 48.6716 139.334 48.8832C138.966 49.751 138.895 50.1074 138.792 51.6228C138.71 52.8199 138.63 53.283 138.463 53.5167C138.234 53.835 137.975 55.1811 137.975 56.0472C137.975 56.319 137.943 56.7541 137.902 57.0149L137.83 57.4881L137.437 56.9455C137.122 56.5112 137.028 56.2301 136.965 55.5291C136.833 54.0602 136.671 53.2856 136.421 52.9402C136.243 52.6938 136.159 52.2832 136.088 51.324C135.989 49.988 135.831 49.2625 135.619 49.1685C135.476 49.105 135.254 47.7183 135.254 46.8827C135.254 46.5229 135.142 46.0953 134.954 45.733C134.738 45.3207 134.62 44.8102 134.535 43.9373C134.403 42.5633 134.297 42.118 134.013 41.748C133.878 41.5727 133.785 41.0555 133.716 40.0937C133.634 38.9584 133.555 38.5817 133.297 38.0991C133.014 37.5657 132.978 37.3541 132.964 36.0799L132.948 34.6568L133.585 34.4697C134.349 34.247 134.452 34.0828 134.385 33.2048C134.295 32.012 134.36 32.034 130.715 31.9823C126.953 31.9299 126.987 31.9188 126.886 33.2878C126.82 34.1725 126.849 34.2165 127.734 34.5704L128.317 34.8032L128.533 35.9555C128.661 36.6429 128.841 37.2085 128.978 37.3566C129.13 37.5209 129.235 37.89 129.285 38.4344C129.388 39.5637 129.544 40.1775 129.807 40.4865C129.953 40.6601 130.056 41.069 130.111 41.6989C130.189 42.592 130.466 43.4954 130.661 43.4954C130.709 43.4954 130.778 43.7553 130.814 44.0728C130.952 45.2809 131.137 46.0471 131.368 46.3671C131.526 46.5864 131.639 47.0359 131.702 47.6912C131.799 48.7071 131.961 49.2769 132.182 49.3725C132.251 49.4022 132.379 49.9635 132.466 50.6188C132.606 51.6635 132.752 52.1401 133.021 52.4237C133.06 52.4661 133.178 53.0477 133.282 53.7165C133.401 54.481 133.565 55.0609 133.723 55.2793C133.893 55.5155 134.003 55.9448 134.068 56.6187C134.163 57.6151 134.349 58.273 134.535 58.273C134.658 58.273 134.9 59.4768 134.9 60.0898C134.9 60.3463 135.04 60.7738 135.225 61.0829C135.404 61.3826 135.603 61.7398 135.668 61.8778C135.741 62.0319 136.083 62.1928 136.556 62.296C136.979 62.3892 137.375 62.5263 137.437 62.6008C138.092 63.3941 139.171 62.3164 139.344 60.6976C139.387 60.2955 139.467 59.9662 139.523 59.9662C139.717 59.9662 139.953 59.1153 140.027 58.1493C140.076 57.5169 140.21 56.9379 140.413 56.4891C140.627 56.0134 140.754 55.4377 140.824 54.6275C140.894 53.8156 140.996 53.355 141.155 53.1315C141.413 52.7691 141.584 52.003 141.7 50.6916C141.742 50.2048 141.826 49.8069 141.884 49.8069C142.084 49.8069 142.32 48.9636 142.403 47.9596C142.46 47.2645 142.578 46.7836 142.789 46.3832C143.017 45.9514 143.115 45.5137 143.181 44.6434C143.247 43.7595 143.331 43.3938 143.53 43.1186C143.718 42.857 143.842 42.3601 143.977 41.3213C144.079 40.5322 144.235 39.7923 144.323 39.678C144.607 39.3081 144.689 38.9753 144.775 37.8451C144.84 36.9909 144.926 36.6362 145.147 36.306C145.305 36.0698 145.488 35.7895 145.555 35.6837C145.621 35.5762 145.935 35.4915 146.268 35.4915C146.785 35.4915 146.907 35.4272 147.219 34.9912C148.192 33.6315 147.91 33.0067 146.23 32.7968C145.793 32.7417 145.234 32.5724 144.988 32.42C144.06 31.8452 140.948 31.6234 140.578 32.1051ZM1.1165 32.0839C0.246604 32.2177 -0.0214562 32.6715 0.00131607 33.9702C0.024739 35.296 0.193253 35.4915 1.31235 35.4915H2.19331L2.73139 36.1824L3.27011 36.8724L3.31696 38.8941L3.3638 40.9158C3.37371 41.3443 3.38565 41.7874 3.39902 42.2306C3.45503 44.0864 3.53618 45.9426 3.59868 46.7286C3.60301 46.783 3.60742 46.8411 3.61189 46.9027C3.6875 47.9444 3.78232 49.9785 3.82901 51.5771C3.89407 53.7902 3.90644 52.8157 3.87455 48.1136C3.79518 36.2933 3.64683 35.4992 1.47566 35.2528C0.408614 35.1317 0.26287 34.9997 0.103464 34.0032C-0.0910758 32.7858 2.17444 31.7529 3.12958 32.6232C3.50239 32.9636 4.08406 32.9399 4.72754 32.558C5.38078 32.1711 10.6444 32.26 11.0979 32.6656C11.2261 32.7807 11.4193 32.8747 11.5273 32.8747C11.6353 32.8747 12.1162 33.3589 12.5957 33.9499C13.0746 34.5416 13.9061 35.5652 14.4428 36.2239L15.4188 37.4227L15.439 39.0354C15.4459 39.5895 15.4601 39.9725 15.4762 40.0996C15.4859 40.1761 15.4962 40.1599 15.506 40.0328C15.532 39.6941 15.6029 39.3512 15.6634 39.2708C15.7962 39.0947 15.8131 37.4929 15.6823 37.4929C15.6322 37.4929 15.4936 37.2567 15.3739 36.968C15.2542 36.6793 14.936 36.234 14.6667 35.9775C14.3973 35.7218 13.8443 35.0919 13.4376 34.578C13.0303 34.065 12.6536 33.6442 12.5996 33.6442C12.5456 33.6442 12.4304 33.4715 12.3432 33.2599C12.2561 33.0482 12.1181 32.8747 12.0368 32.8747C11.9548 32.8747 11.7141 32.6842 11.502 32.4514L11.1148 32.0281H7.89484C4.74055 32.0281 4.66638 32.0348 4.31373 32.3743C3.86479 32.8061 3.73987 32.8069 3.47637 32.3828C3.24279 32.0086 2.34816 31.8951 1.1165 32.0839ZM55.8175 32.1C55.6873 32.1711 55.4882 32.3752 55.375 32.5521C55.2618 32.7299 55.064 32.8747 54.9352 32.8747C54.8064 32.8747 54.5826 33.0821 54.4381 33.3361C54.2943 33.5901 54.1232 33.7983 54.0581 33.7983C53.6333 33.7983 52.2116 35.2951 52.0841 35.8759C51.9429 36.5193 51.8447 36.8224 51.5447 37.5353C51.438 37.7901 51.3235 38.6765 51.263 39.7237C51.1817 41.1325 51.1153 41.549 50.9318 41.8056C50.6996 42.129 50.5297 43.2219 50.371 45.4079C50.328 45.9937 50.2357 46.5931 50.1647 46.7404C50.0717 46.9352 50.0749 47.1764 50.1777 47.6226C50.2552 47.9604 50.3541 49.6426 50.3964 51.3612L50.4738 54.4861L50.8687 54.9991C51.0854 55.2819 51.263 55.5774 51.263 55.6569C51.263 55.7374 51.4127 55.9024 51.5948 56.0252C51.7777 56.148 51.9872 56.4214 52.0607 56.6322C52.1349 56.8422 52.2969 57.0564 52.4211 57.108C52.5454 57.1597 52.7074 57.3739 52.7809 57.5855C52.8551 57.7972 53.0438 58.0452 53.2 58.1383C53.3568 58.2306 53.5428 58.4736 53.6144 58.6776C53.686 58.8817 53.8779 59.1153 54.0419 59.1958C54.2052 59.277 54.3386 59.4514 54.3386 59.5844C54.3386 59.7181 54.496 59.9442 54.6873 60.0872C54.8792 60.2303 55.0914 60.5055 55.159 60.6976C55.2267 60.8907 55.4147 61.1269 55.5774 61.2234C55.74 61.3199 55.9554 61.5612 56.0549 61.7601L56.2371 62.1208H59.3511H62.4644L62.8086 61.7364C62.9972 61.5248 63.1879 61.3521 63.2321 61.3521C63.2764 61.3512 63.4039 61.0812 63.5164 60.7501C63.6284 60.4191 63.845 60.0737 63.9979 59.9831C64.1508 59.8925 64.2757 59.6927 64.2757 59.5378C64.2757 59.3837 64.4618 59.0231 64.6889 58.736C64.916 58.4499 65.1326 58.0003 65.1704 57.737C65.212 57.45 65.3421 57.2003 65.4963 57.1114C65.6375 57.031 65.8295 56.7575 65.9218 56.5044C66.0142 56.2513 66.2146 55.9177 66.3662 55.7619C66.5178 55.607 66.6421 55.3987 66.6421 55.2988C66.6421 55.1989 66.8256 54.8493 67.0494 54.5216C67.2739 54.1931 67.4899 53.7334 67.5296 53.4981C67.5693 53.2636 67.7052 52.9495 67.8315 52.8005C68.2876 52.2637 68.1496 39.8016 67.6877 39.8016C67.633 39.8016 67.5881 39.6966 67.5881 39.5697C67.5881 39.4418 67.162 38.7188 66.6415 37.9636C66.1209 37.2085 65.6954 36.5269 65.6954 36.4507C65.6954 36.3737 65.5621 36.2315 65.3994 36.135C65.2367 36.0384 65.104 35.892 65.104 35.8082C65.104 35.7252 64.8912 35.3832 64.631 35.0479C64.3707 34.7127 64.1573 34.3613 64.1573 34.2682C64.1573 34.1751 64.0233 34.032 63.8593 33.9507C63.696 33.8703 63.5112 33.6315 63.4501 33.4207C63.3108 32.9458 63.1898 32.9136 61.1364 32.812C59.9744 32.7544 59.3641 32.6571 59.1045 32.4886C58.4896 32.0899 56.3074 31.8316 55.8175 32.1ZM79.8051 32.0831C78.8936 32.2406 78.3861 33.2319 78.6158 34.4079C78.7784 35.2435 79.1506 35.4915 80.2424 35.4915C81.0264 35.4915 81.0875 35.5161 81.2177 35.8877C81.2944 36.1062 81.4974 36.3788 81.6692 36.4948L81.9822 36.7047L82.0635 43.2177C82.1077 46.7997 82.1982 51.6347 82.2632 53.9629C82.4135 59.3312 82.4213 59.2669 81.6178 59.5708C80.8624 59.8561 80.621 60.177 80.5813 60.9508C80.5299 61.9439 80.7427 62.0548 82.9269 62.1733C88.0285 62.4484 88.4807 62.3113 88.0955 60.6028C87.9036 59.7503 87.7657 59.5928 87.063 59.421C86.3564 59.2483 86.3147 58.9782 86.264 54.2118C86.225 50.5654 86.2425 50.0549 86.4071 49.9186C86.7006 49.6765 87.6362 49.9271 87.9791 50.3411C88.3161 50.7474 88.4566 50.8152 89.2569 50.9557C89.795 51.0514 89.8113 51.07 89.8913 51.6863C89.9368 52.0343 90.0917 52.4728 90.2368 52.6616C90.3929 52.8648 90.5556 53.3652 90.6376 53.896C90.713 54.3862 90.8679 54.9576 90.9818 55.1651C91.3721 55.8787 91.4808 56.1954 91.4827 56.628C91.4847 57.1216 91.6571 57.6143 91.9623 57.9961C92.0768 58.1392 92.2069 58.532 92.2505 58.8673C92.365 59.752 92.6493 60.028 93.313 59.8984C93.6084 59.8409 93.8504 59.73 93.8504 59.6529C93.8504 59.4726 94.4835 59.0442 94.7613 59.0374C95.084 59.029 95.5746 58.4135 95.7262 57.8268C95.9058 57.1317 95.9116 57.1656 95.5121 56.5129C95.3026 56.1691 95.1315 55.6646 95.0834 55.2489C95.0398 54.8679 94.8836 54.3709 94.7372 54.144C94.5902 53.918 94.3865 53.3051 94.2837 52.7835C94.1718 52.2146 93.9766 51.6787 93.7964 51.4442C93.6305 51.2283 93.4939 50.8931 93.4913 50.6992C93.4867 50.2615 93.3904 50.1015 92.4307 48.9501C91.4912 47.8224 91.4112 47.1891 92.1562 46.7836C92.3865 46.6583 92.5999 46.4323 92.6305 46.2799C92.6611 46.1283 92.8543 45.9074 93.0612 45.7888C93.2674 45.6703 93.5056 45.3833 93.5902 45.1505C93.6754 44.9177 93.7899 44.7272 93.8452 44.7272C94.0866 44.7272 94.2219 43.5259 94.2883 40.7896C94.367 37.5141 94.3267 37.0959 93.9064 36.847C93.745 36.7513 93.6136 36.5786 93.6136 36.4618C93.6136 36.3458 93.4275 36.1079 93.1998 35.9326C92.9721 35.7582 92.7853 35.5152 92.7853 35.3942C92.7853 35.2723 92.5992 35.0301 92.3715 34.8557C92.1438 34.6805 91.9577 34.4739 91.9577 34.3969C91.9577 34.319 91.7918 34.1243 91.5895 33.9643C91.3871 33.8042 91.1594 33.5113 91.0839 33.3141C91.0078 33.1159 90.8406 32.9297 90.7124 32.8992C90.5836 32.8696 90.3292 32.6613 90.1457 32.4361L89.8126 32.0281H86.493C83.1819 32.0281 83.1728 32.0289 82.9965 32.3743C82.7766 32.8044 82.4161 32.8196 82.1578 32.409C81.9314 32.0501 80.8559 31.9011 79.8051 32.0831ZM110.451 32.1754C109.422 32.7578 109.638 34.2716 110.784 34.512C111.047 34.567 111.373 34.8024 111.623 35.1173L112.03 35.6329L112.056 37.3566L112.112 41.0842C112.129 42.2044 112.155 43.3487 112.186 44.419C112.242 46.3434 112.316 48.0284 112.387 48.9027C112.492 50.2039 112.613 52.2739 112.654 53.5015L112.824 54.6485L112.865 54.9255L112.864 57.0636L112.863 57.9498L112.863 58.273C112.864 58.182 112.864 58.0737 112.863 57.9498C112.862 57.5147 112.856 56.8879 112.846 56.1485C112.84 55.6861 112.833 55.1797 112.824 54.6485C112.775 51.5452 112.692 47.5966 112.651 46.6515C112.587 45.2123 112.467 42.1256 112.384 39.7923C112.219 35.1173 112.138 34.689 111.38 34.4815C110.128 34.1395 109.809 32.9161 110.839 32.4065C111.507 32.0763 116.648 32.2253 116.904 32.5817C117.459 33.3581 117.286 34.1835 116.491 34.5476C116.238 34.6636 115.885 34.9362 115.706 35.1537L115.381 35.5491V37.0481V38.5472V41.5452V47.5413C115.381 48.2074 115.381 48.8386 115.38 49.437C115.38 49.4553 115.38 49.4735 115.38 49.4917C115.38 49.5064 115.38 49.521 115.38 49.5356C115.38 49.5368 115.38 49.538 115.38 49.5393C115.38 50.4465 115.38 51.2774 115.38 52.0385C115.382 55.8982 115.395 57.9644 115.475 59.091C115.48 59.1649 115.486 59.2347 115.492 59.3007C115.6 60.5237 115.813 60.4433 116.23 60.5893C116.831 60.8001 117.073 61.1404 116.978 61.6433C116.828 62.4383 116.707 62.4857 115.302 62.2944C114.597 62.1987 113.541 62.1199 112.955 62.1199C111.073 62.1191 110.494 61.7331 110.885 60.7366C111.169 60.0111 111.234 59.956 112.057 59.741C112.253 59.6898 112.403 59.6455 112.516 59.5751C112.635 59.5015 112.715 59.3994 112.767 59.2309C112.828 59.0372 112.853 58.7559 112.862 58.3296C112.868 58.0638 112.867 57.7417 112.865 57.3493L112.864 57.0636L112.858 55.8872L112.846 56.1485L112.783 57.5364C112.695 59.4633 112.765 59.3075 111.88 59.5166C110.963 59.7334 110.685 59.9865 110.528 60.7484C110.401 61.3597 110.582 62.1123 110.858 62.125C112.314 62.1928 114.61 62.4586 114.783 62.5788C115.565 63.124 116.735 63.0385 116.982 62.418C117.344 61.5053 117.186 60.7501 116.582 60.5089C116.429 60.4479 116.117 60.1448 115.888 59.8358L115.492 59.3007L115.472 59.2736L115.475 59.091L115.545 55.3615C115.565 54.2819 115.583 52.3967 115.596 50.2319C115.609 48.0829 115.617 45.6584 115.617 43.4725V39.4841V35.4958L116.001 35.2613C116.531 34.9387 117.158 34.413 117.501 34.0049L117.788 33.662L117.448 32.9991C117.261 32.6342 117.029 32.249 116.931 32.1432C116.666 31.8545 110.967 31.8833 110.451 32.1754ZM143.135 32.3142C143.598 32.4293 144.033 32.569 144.103 32.6249C144.173 32.6808 144.799 32.7968 145.494 32.8823C147.294 33.1041 147.54 33.3115 147.199 34.319C146.957 35.0327 146.616 35.3315 146.043 35.3349C145.18 35.34 144.813 35.8861 144.657 37.4006C144.615 37.8163 144.448 38.5317 144.286 38.9906C144.125 39.4494 143.923 40.2994 143.839 40.8785C143.754 41.4576 143.579 42.162 143.45 42.4439C143.321 42.7267 143.148 43.4768 143.066 44.1117C142.985 44.7467 142.818 45.4807 142.696 45.7431C142.573 46.0056 142.397 46.7328 142.304 47.3593C142.21 47.9858 142.001 48.8798 141.837 49.3455C141.675 49.8111 141.504 50.5383 141.46 50.9616C141.415 51.3849 141.258 52.0495 141.11 52.4398C140.962 52.8293 140.776 53.6522 140.696 54.2685C140.616 54.8857 140.454 55.6053 140.334 55.8694C140.215 56.1327 140.039 56.8439 139.943 57.4501C139.847 58.0554 139.638 58.9206 139.48 59.3736C139.321 59.8265 139.155 60.5089 139.11 60.8898C138.966 62.1233 138.859 62.2029 137.416 62.1665C136.383 62.1411 136.122 62.0861 135.952 61.8592C135.613 61.4046 135.034 59.7748 134.95 59.0374C134.907 58.659 134.751 58.0732 134.604 57.7345C134.456 57.3959 134.268 56.7025 134.185 56.1945C134.103 55.6866 133.932 55.0448 133.806 54.7688C133.68 54.492 133.503 53.8122 133.414 53.2568C133.325 52.7014 133.142 52.0148 133.006 51.7312C132.872 51.4467 132.688 50.7601 132.599 50.2048C132.51 49.6502 132.331 48.9696 132.202 48.6936C132.072 48.4167 131.902 47.775 131.824 47.267C131.745 46.7591 131.573 46.1114 131.44 45.8278C131.307 45.5442 131.125 44.8576 131.036 44.3022C130.946 43.7468 130.769 43.0729 130.641 42.8046C130.514 42.537 130.325 41.8386 130.22 41.2519C130.116 40.666 129.934 39.9786 129.816 39.7246C129.697 39.4706 129.533 38.8475 129.451 38.3395C129.367 37.8316 129.183 37.1382 129.038 36.7995C128.894 36.4609 128.743 35.9453 128.701 35.6532C128.585 34.8337 128.322 34.4138 127.924 34.4138C127.727 34.4138 127.436 34.2521 127.246 34.0379L126.914 33.662L127.151 33.0787C127.466 32.3024 127.855 32.2253 131.125 32.2871C133.896 32.3396 133.993 32.3692 134.133 33.1998C134.237 33.8119 134.055 34.0591 133.289 34.3486C132.941 34.4807 132.626 34.6509 132.591 34.7271C132.485 34.9497 132.887 37.6529 133.15 38.4928C133.284 38.9161 133.485 39.8863 133.6 40.6482C133.714 41.4102 133.902 42.272 134.018 42.5633C134.135 42.8545 134.295 43.6207 134.374 44.2658C134.453 44.9109 134.637 45.777 134.781 46.1893C134.926 46.6024 135.109 47.4643 135.189 48.1043C135.269 48.7444 135.441 49.5453 135.572 49.8839C135.704 50.2225 135.876 51.0539 135.956 51.7312C136.035 52.4085 136.205 53.2297 136.333 53.5565C136.461 53.8833 136.638 54.6799 136.726 55.3268C136.923 56.7677 137.034 57.1283 137.48 57.7912L137.829 58.3102L137.956 57.7912C138.026 57.5059 138.118 56.8219 138.161 56.2716C138.204 55.7213 138.361 54.856 138.511 54.3481C138.66 53.8401 138.846 52.8005 138.925 52.0385C139.003 51.2766 139.172 50.3487 139.301 49.9753C139.43 49.602 139.605 48.6673 139.69 47.8969C139.848 46.4585 139.892 46.2325 140.178 45.3918C140.269 45.1226 140.419 44.2218 140.511 43.3904C140.602 42.5599 140.781 41.5677 140.91 41.1867C141.039 40.8057 141.207 39.871 141.282 39.1091C141.359 38.3438 141.553 37.327 141.716 36.8385C142.142 35.5593 142.083 34.5577 141.573 34.3867C140.776 34.1192 140.269 32.8755 140.72 32.2897C140.909 32.0433 142.091 32.0551 143.135 32.3142ZM162.048 32.4141C161.831 32.7265 161.53 33.7153 161.522 34.1446C161.519 34.2927 161.469 34.4138 161.412 34.4138C161.202 34.4138 160.949 35.4416 160.867 36.6218C160.81 37.4574 160.72 37.9128 160.576 38.0999C160.278 38.4877 160.097 39.2666 160.095 40.1707C160.094 40.6025 160.027 41.1029 159.947 41.2823C159.867 41.4618 159.712 41.8123 159.603 42.0604C159.494 42.3093 159.345 43.0822 159.271 43.779C159.179 44.6578 159.049 45.2148 158.848 45.6001C158.689 45.9057 158.559 46.3789 158.559 46.6515C158.559 47.4685 158.331 48.7952 158.162 48.9603C157.939 49.1787 157.763 50.0219 157.686 51.2495C157.643 51.9166 157.554 52.3712 157.444 52.4804C157.191 52.731 157.025 53.4033 156.902 54.6706C156.829 55.4072 156.699 55.9609 156.511 56.3207C156.32 56.6873 156.207 57.1766 156.159 57.8386C156.056 59.2652 156.037 59.299 155.209 59.4887C154.242 59.7097 153.896 60.0525 153.851 60.8331C153.784 61.9963 154.024 62.1208 156.623 62.2715C158.153 62.3604 159.018 62.4781 159.374 62.6465C160.415 63.1393 161.729 61.7551 160.984 60.9499C160.789 60.7391 160.496 60.409 160.333 60.2159C160.17 60.0229 159.852 59.7731 159.624 59.6605C159.006 59.3541 158.98 59.2787 159.246 58.554C159.523 57.7972 159.741 56.3943 159.744 55.3589C159.747 53.9696 159.69 54.0204 161.378 53.9112C162.864 53.8156 163.264 53.7284 164.178 53.3008C164.439 53.1789 165.197 53.0384 165.865 52.9893L167.078 52.8978L167.434 53.3516C167.88 53.918 168.023 54.3989 168.023 55.3318C168.023 55.8068 168.126 56.3308 168.315 56.8168C168.929 58.3966 168.867 59.5666 168.16 59.713C167.81 59.7858 167.568 59.9958 167.132 60.6028L166.56 61.3978L166.907 61.7584C167.398 62.2706 167.627 62.2986 170.837 62.2453C174.049 62.1928 173.933 62.2368 173.936 61.0718C173.939 59.9823 173.769 59.7723 172.615 59.4413C172.426 59.3871 172.263 59.2085 172.213 59.0036C172.167 58.8131 172.033 58.5489 171.916 58.416C171.767 58.2467 171.665 57.7862 171.579 56.8862C171.488 55.9465 171.374 55.447 171.159 55.0431C170.953 54.6571 170.84 54.1855 170.787 53.4938C170.71 52.4957 170.476 51.6542 170.275 51.6542C170.215 51.6542 170.133 51.3248 170.092 50.9227C169.927 49.293 169.775 48.5725 169.555 48.3727C169.385 48.2169 169.304 47.8681 169.224 46.9369C169.12 45.7262 168.944 45.0354 168.738 45.0354C168.613 45.0354 168.378 43.6867 168.378 42.9713C168.378 42.6759 168.248 42.2128 168.07 41.8707C167.873 41.4923 167.723 40.9234 167.654 40.2893C167.499 38.8594 167.431 38.5876 167.177 38.3565C167.019 38.2117 166.932 37.8993 166.889 37.3211C166.776 35.8022 166.713 35.4949 166.435 35.1055C166.265 34.8659 166.132 34.4367 166.085 33.9761C165.992 33.0694 165.822 32.9348 164.612 32.8078C164.136 32.757 163.603 32.6232 163.429 32.5098C162.859 32.1356 162.269 32.0958 162.048 32.4141ZM90.1665 32.8603C90.7313 33.2743 91.5075 34.1649 93.2336 36.3813L94.2265 37.6555L94.1471 39.8448C94.0254 43.2067 93.5993 45.4883 93.0918 45.5002C93.0209 45.501 92.7502 45.7482 92.4899 46.0488C92.2297 46.3485 91.8744 46.6922 91.7014 46.8124C91.1099 47.2213 91.1405 47.8554 91.7879 48.6131C92.8432 49.85 93.2564 50.5011 93.4412 51.219C93.5433 51.6144 93.6995 52.0165 93.788 52.1122C93.8771 52.2087 94.0606 52.7641 94.1972 53.3482C94.3332 53.9315 94.4985 54.4522 94.5635 54.5047C94.7151 54.6266 95.0333 55.6121 95.0333 55.9617C95.0333 56.1082 95.1575 56.468 95.3098 56.7592C95.5831 57.2833 95.5837 57.296 95.3716 57.8107C95.0547 58.5803 94.9493 58.6751 93.8504 59.1822L92.8445 59.6462L92.6422 59.3058C92.5309 59.1187 92.404 58.7606 92.3611 58.51C92.3175 58.2586 92.1601 57.809 92.0098 57.5093C91.8601 57.2096 91.6571 56.5594 91.5602 56.065C91.4626 55.5706 91.298 55.044 91.1952 54.8958C91.0917 54.7477 90.9271 54.2177 90.8282 53.7174C90.73 53.2179 90.5478 52.6269 90.4242 52.406C90.3006 52.1841 90.1223 51.7625 90.0279 51.4688C89.8841 51.0217 89.7625 50.9007 89.2803 50.728C88.9635 50.6137 88.5672 50.3902 88.3994 50.2319C87.9016 49.7594 86.5783 49.4276 86.1371 49.6655L85.7734 49.8619L85.8593 54.0044C85.9634 59.0366 86.0128 59.2728 87.0324 59.6352C87.7143 59.8773 87.9355 60.2075 87.9355 60.9855C87.9355 61.9515 87.8815 61.9676 84.586 61.9676C81.3517 61.9676 80.7433 61.8329 80.906 61.1531C81.1682 60.0576 81.1916 60.0254 82.0101 59.6605C82.2977 59.5319 82.5879 59.3109 82.6556 59.1687C82.7746 58.9172 82.6374 52.1257 82.3738 45.1886C82.3172 43.707 82.2678 41.3865 82.2639 40.0311C82.2535 36.3094 81.895 35.4729 80.2196 35.2604C79.025 35.108 78.5182 34.2961 78.9554 33.2345C79.282 32.4387 81.1292 32.0687 81.9021 32.6435C82.2873 32.9297 83.0173 32.9356 83.1975 32.6529C83.5684 32.0712 89.3233 32.2431 90.1665 32.8603ZM193.752 32.4463C193.557 32.5343 193.078 32.6622 192.688 32.7299C192.553 32.7534 192.48 32.7717 192.47 32.7848C192.445 32.8186 192.837 32.8185 193.658 32.7849C195.501 32.7104 196.138 32.8882 196.57 33.5985C196.86 34.0735 197.221 34.0438 197.846 33.4935C198.571 32.8535 198.531 32.8391 199.62 34.1446C200.055 34.6661 199.566 36.0545 198.501 37.327C198.329 37.5319 198.188 37.763 198.188 37.8392C198.188 38.0788 197.153 39.3394 196.956 39.3394C196.853 39.3394 196.65 39.1836 196.505 38.9931C196.36 38.8026 196.134 38.5757 196.002 38.4885C195.871 38.4013 195.694 38.1414 195.609 37.9111C195.524 37.6809 195.406 37.4929 195.347 37.4929C195.288 37.4929 195.114 37.2516 194.96 36.957C194.505 36.0867 193.835 35.5745 193.401 35.7658C192.78 36.0401 191.894 36.2382 190.859 36.3348C189.806 36.4321 189.511 36.6116 188.838 37.5623C188.678 37.7892 188.268 38.3336 187.927 38.7713C187.23 39.6653 187.166 40.0217 187.584 40.6745C187.737 40.9141 187.926 41.3619 188.003 41.6709C188.08 41.9791 188.271 42.4244 188.427 42.6606C188.582 42.8968 188.744 43.2668 188.786 43.4844C188.907 44.1109 189.053 44.2396 189.768 44.3479C190.137 44.4046 190.706 44.6078 191.031 44.8C191.357 44.9922 192.076 45.2386 192.629 45.3469C193.182 45.4553 193.826 45.6737 194.06 45.832C194.295 45.9903 194.948 46.2172 195.511 46.3358C196.931 46.6355 197.309 46.9834 198.706 49.2837L199.121 49.9668L199.164 50.038L199.051 50.3464L198.773 51.0982V53.0982C198.772 53.1399 198.771 53.1814 198.769 53.2225C198.623 58.0726 198.699 58.6584 197.715 58.985C197.449 59.1153 197.257 59.2406 197.058 59.4328C196.859 59.625 196.421 59.8891 196.085 60.0187C195.749 60.149 195.367 60.3844 195.236 60.5427C195.106 60.701 194.732 60.9195 194.406 61.0278C194.079 61.137 193.782 61.2894 193.745 61.3682C193.279 62.3485 190.709 62.4357 189.169 61.5231C187.679 60.6401 185.989 60.6392 185.642 61.5222L185.408 62.1208L184.612 62.1191C183.242 62.1149 182.894 61.6018 183.436 60.3844C183.594 60.0271 183.815 59.3727 183.926 58.9291C184.038 58.4855 184.178 58.0833 184.238 58.0351C184.298 57.9868 184.487 57.5627 184.658 57.0928L184.969 56.2377L185.634 56.3241C186.707 56.4637 187.845 56.821 188.27 57.1537C188.487 57.3231 189.01 57.5474 189.431 57.6507C189.851 57.7548 190.448 58.0063 190.758 58.2103C191.469 58.6793 192.008 58.6819 192.534 58.2171C192.761 58.0173 193.234 57.7675 193.586 57.6617C193.938 57.5559 194.412 57.3121 194.64 57.1199C194.868 56.9277 195.214 56.7321 195.409 56.6864C196.543 56.418 196.68 55.8161 196.125 53.5353C195.966 52.8817 195.775 51.8446 195.7 51.2309C195.538 49.8941 195.638 49.988 194.089 49.723C193.398 49.6054 192.51 49.3632 192.113 49.1846C191.717 49.006 190.832 48.7647 190.147 48.6479C188.801 48.4193 188.593 48.5115 188.133 48.1991C188.128 48.1951 188.121 48.1909 188.115 48.1864C187.939 48.0682 187.553 47.8071 187.364 47.8055C187.086 47.796 186.858 47.8019 186.668 47.8071C186.094 47.8228 185.87 47.8317 185.642 47.3879C185.613 47.3309 185.591 47.2585 185.574 47.1746C185.494 46.7683 185.537 46.094 185.474 45.6178C185.39 44.9939 185.21 44.1625 185.073 43.7705C184.936 43.3786 184.763 42.5497 184.69 41.93C184.616 41.3094 184.429 40.412 184.275 39.9362C183.949 38.9355 183.926 38.6367 184.164 38.5173C184.258 38.4708 184.425 38.2032 184.534 37.9238C184.643 37.6445 184.915 37.1729 185.137 36.8766C186.023 35.6973 186.122 35.5525 186.122 35.4357C186.122 35.3688 186.269 35.1156 186.448 34.8735C186.627 34.6314 186.904 34.247 187.066 34.0193C187.642 33.2057 187.773 33.1608 189.934 33.033L191.978 32.9128L189.713 32.9322L187.448 32.9517L186.786 33.8754C186.422 34.3833 186.124 34.8422 186.123 34.8955C186.122 34.948 185.91 35.2858 185.649 35.6456C185.389 36.0046 185.176 36.3898 185.176 36.5007C185.176 36.6116 185.064 36.7479 184.928 36.8046C184.792 36.8605 184.605 37.1424 184.513 37.4303C184.42 37.719 184.293 37.9543 184.23 37.9543C183.728 37.9543 183.663 39.8338 184.144 40.4594C184.316 40.6838 184.411 41.1088 184.493 42.0164C184.649 43.7663 184.666 43.8476 184.927 44.2125C185.082 44.4292 185.201 44.9295 185.286 45.7194C185.479 47.5252 185.591 47.6929 186.735 47.8732C187.105 47.9316 187.47 48.0781 187.547 48.1991C187.752 48.52 188.381 48.702 189.878 48.8731C190.924 48.9924 191.278 49.094 191.546 49.3522C191.821 49.6172 192.156 49.707 193.292 49.8213C195.331 50.0278 195.581 50.2471 195.585 51.8387C195.587 52.8022 195.808 54.1339 196.019 54.4446C196.298 54.8577 196.288 56.2716 196.006 56.2716C195.484 56.2716 194.595 56.6593 194.215 57.053C193.909 57.3688 193.648 57.5034 193.339 57.5034C193.071 57.5034 192.737 57.6456 192.489 57.8649C191.92 58.3669 191.469 58.4567 191.209 58.1189C190.95 57.7819 190.402 57.5584 189.553 57.4433C189.184 57.3933 188.847 57.2562 188.774 57.1275C188.597 56.8117 188.119 56.5975 187.219 56.4316C186.798 56.3545 186.358 56.1793 186.243 56.0438C185.613 55.3022 184.672 55.7391 184.512 56.8473C184.47 57.1368 184.361 57.4111 184.269 57.4577C184.03 57.577 183.756 58.3331 183.756 58.8757C183.756 59.1805 183.638 59.4972 183.413 59.7969C182.597 60.8831 182.828 61.9955 183.925 62.2706C184.32 62.3697 184.746 62.4772 184.871 62.5094C185.2 62.594 185.705 62.1564 185.848 61.6628C186.036 61.016 188.092 60.9677 188.578 61.6001C188.847 61.9506 189.155 62.0658 190.145 62.1877C190.633 62.2478 191.138 62.3858 191.268 62.495C191.581 62.7574 193.417 62.2012 193.848 61.7136C194.009 61.5316 194.445 61.2683 194.816 61.1277C195.188 60.9872 195.622 60.7027 195.781 60.4962C195.94 60.2896 196.198 60.1203 196.355 60.1203C196.727 60.1203 197.263 59.807 197.449 59.4802C197.531 59.338 197.77 59.1729 197.982 59.1153C198.908 58.8605 198.777 57.0694 198.769 53.2225C198.768 52.7878 198.769 52.3268 198.773 51.8387L199.051 50.3464L199.121 49.9668L199.194 49.5732L198.708 48.8045C198.441 48.382 198.19 47.9155 198.15 47.7674C198.11 47.6192 198.029 47.4982 197.97 47.4982C197.91 47.4982 197.656 47.2306 197.404 46.9047C196.97 46.3408 196.897 46.3053 195.977 46.202C195.337 46.13 194.914 46.0005 194.735 45.821C194.314 45.4011 194.07 45.3147 192.944 45.1844C192.139 45.0921 191.84 44.9913 191.641 44.7492C191.43 44.4918 189.784 43.9576 189.201 43.9576C189.155 43.9576 189.052 43.6757 188.973 43.3303C188.893 42.9857 188.672 42.4905 188.481 42.2297C188.274 41.9478 188.133 41.5905 188.133 41.3458C188.133 41.1062 187.985 40.7177 187.777 40.4154L187.421 39.8956L187.777 39.4723C187.973 39.2395 188.133 38.9745 188.133 38.8831C188.133 38.7916 188.26 38.6418 188.416 38.5495C188.571 38.4572 188.756 38.2202 188.825 38.0221C188.894 37.8231 189.113 37.5522 189.311 37.4193C189.509 37.2855 189.671 37.0823 189.671 36.9663C189.671 36.6565 189.942 36.5701 190.953 36.5591C191.452 36.5532 192.286 36.466 192.806 36.3644C193.875 36.1553 194.576 36.3729 194.711 36.9536C194.75 37.123 194.95 37.4819 195.155 37.7503C195.631 38.3751 195.765 38.5546 196.138 39.0617C196.671 39.7898 197.487 39.75 197.64 38.9897C197.672 38.8306 197.805 38.6646 197.935 38.6206C198.066 38.5757 198.257 38.3082 198.36 38.0254C198.463 37.7427 198.644 37.4718 198.761 37.4235C198.878 37.3752 199.063 37.0942 199.171 36.7987C199.279 36.5032 199.442 36.2611 199.533 36.2611C199.915 36.2611 200.194 34.1276 199.831 33.9727C199.741 33.9346 199.504 33.6713 199.304 33.3886C198.849 32.7443 198.202 32.6833 197.584 33.2277C196.887 33.8415 196.894 33.8398 196.774 33.43C196.695 33.1617 196.52 32.9949 196.197 32.8814C195.941 32.7917 195.666 32.6148 195.585 32.4886C195.413 32.2194 194.311 32.1931 193.752 32.4463ZM57.6516 32.5716C57.8793 32.6588 59.1617 32.8247 60.5027 32.9416L62.94 33.154L63.5783 34.0396C63.9296 34.5264 64.3311 35.0767 64.4716 35.263C64.711 35.5813 65.2205 36.3322 66.2986 37.9543C66.5517 38.3353 66.9095 38.8551 67.0943 39.1091C67.6246 39.8397 67.6903 40.6152 67.7293 46.6515C67.769 52.6896 67.7397 53.007 67.0618 53.9629C66.9115 54.1745 66.7215 54.5208 66.6389 54.7324C66.4918 55.1117 66.0403 55.8703 65.4586 56.7152C65.2959 56.9514 65.0708 57.3993 64.9576 57.7091C64.8451 58.019 64.7084 58.273 64.6544 58.273C64.6004 58.273 64.4423 58.5363 64.3031 58.858C64.1638 59.1805 63.888 59.6648 63.6902 59.934C63.4917 60.2041 63.3278 60.5122 63.3265 60.6189C63.3245 60.7256 63.0721 61.0329 62.7643 61.303L62.2054 61.7923L59.4259 61.9007L56.6457 62.009L56.1434 61.4621C55.6503 60.9245 51.8271 55.9651 51.0561 54.8611L50.6618 54.2964L50.5428 50.7043C50.4068 46.6067 50.518 44.5401 50.9676 42.8029C51.1212 42.2102 51.3079 41.102 51.3827 40.3401C51.5063 39.0769 51.8811 37.2694 52.2845 35.991C52.3854 35.6719 52.6703 35.3011 53.0705 34.9675C53.416 34.6805 53.7693 34.3342 53.8558 34.1988C53.9423 34.0633 54.0653 33.9524 54.1297 33.9524C54.1948 33.9524 54.414 33.7738 54.6183 33.5562C55.6919 32.4116 56.5273 32.1398 57.6516 32.5716ZM164.212 32.9356C165.683 33.1617 165.83 33.2734 165.953 34.2597C165.989 34.556 166.15 35.1453 166.31 35.5686C166.471 35.9919 166.662 36.8233 166.735 37.4159C166.808 38.0085 166.974 38.7239 167.106 39.0058C167.237 39.2877 167.413 39.9921 167.499 40.572C167.583 41.1511 167.787 42.0062 167.951 42.4735C168.115 42.94 168.284 43.6901 168.327 44.1397C168.37 44.5901 168.527 45.2487 168.675 45.6043C168.824 45.959 169.012 46.7557 169.093 47.3745C169.175 47.9926 169.346 48.7291 169.475 49.011C169.605 49.293 169.779 49.9965 169.864 50.5747C169.948 51.1521 170.132 51.9513 170.272 52.3492C170.411 52.748 170.58 53.4651 170.648 53.9417C170.715 54.4192 170.899 55.1904 171.056 55.6561C171.214 56.1217 171.415 57.0115 171.505 57.6329C171.693 58.9494 172.069 59.5937 172.746 59.7562C173.682 59.9823 174.178 61.2175 173.584 61.8431C173.118 62.3333 167.804 62.2596 167.355 61.7559C166.921 61.2708 167.144 60.7874 168.072 60.1965C169.12 59.5293 169.178 58.8453 168.431 55.9727C168.272 55.3589 168.141 54.7231 168.141 54.5589C168.141 53.9713 167.802 53.2119 167.429 52.9605C166.973 52.654 164.085 52.8538 162.877 53.2754C162.487 53.4117 161.661 53.5912 161.043 53.675C159.703 53.8562 159.738 53.8181 159.557 55.2285C159.477 55.8449 159.3 56.8964 159.163 57.566C158.783 59.4227 158.769 59.371 159.919 60.3463C160.985 61.2505 161.045 61.358 160.718 61.7949C160.373 62.2563 160.182 62.2757 157.487 62.1208C154.425 61.9447 154.182 61.8541 154.182 60.8898C154.182 60.2041 154.447 59.9306 155.31 59.7291C156.027 59.5607 156.109 59.4523 156.264 58.466C156.343 57.9622 156.525 57.2138 156.669 56.8032C156.812 56.3926 157.004 55.5071 157.094 54.8349C157.184 54.1635 157.357 53.3982 157.479 53.134C157.6 52.8707 157.765 52.1003 157.845 51.423C157.924 50.7457 158.092 49.9762 158.215 49.712C158.339 49.4479 158.514 48.6826 158.604 48.0112C158.694 47.339 158.884 46.4585 159.025 46.0547C159.167 45.65 159.358 44.7645 159.45 44.0872C159.541 43.4099 159.717 42.6361 159.841 42.3677C159.964 42.0993 160.131 41.3255 160.213 40.6482C160.293 39.9709 160.468 39.1396 160.601 38.8009C160.734 38.4623 160.909 37.691 160.99 37.0882C161.071 36.4846 161.221 35.7574 161.323 35.4712C161.426 35.1859 161.619 34.4908 161.752 33.9253C162.069 32.5775 162.015 32.5995 164.212 32.9356ZM33.8142 33.0584C33.6191 33.1515 33.3367 33.3522 33.187 33.5037C33.0055 33.6866 32.5923 33.8152 31.9541 33.8872C30.2754 34.0777 29.5298 35.7057 30.5084 37.0425C30.9534 37.6504 32.5143 37.68 33.1252 37.0925C33.4857 36.7454 34.4154 36.4948 34.7414 36.6573C34.9262 36.7504 34.9346 37.6216 34.8631 49.1694L34.7856 61.5824L35.0524 61.8905C35.2827 62.1564 35.487 62.1978 36.545 62.1978C38.4168 62.1978 38.2106 63.3992 38.3609 51.6542C38.4494 44.767 38.5411 41.1833 38.6608 39.9557C38.7558 38.9821 38.8352 37.3541 38.8372 36.3382L38.8398 34.4908L38.1013 33.7213L37.3628 32.9517L35.7662 32.9195C34.8253 32.9009 34.0231 32.9576 33.8142 33.0584ZM37.6179 33.6586C38.5528 34.4621 38.5222 34.2386 38.3824 39.2759C38.314 41.7234 38.2275 47.3983 38.1904 51.8853C38.1123 61.1607 38.0993 61.4257 37.6979 61.7678C37.1988 62.1928 35.8872 62.2173 35.4909 61.8092L35.1559 61.4638L35.2424 49.1109L35.3283 36.7581L35.0478 36.5633C34.6327 36.2738 33.0517 36.4778 32.6314 36.8749C31.5416 37.9018 30.0965 36.7174 30.6359 35.2392C30.902 34.5095 31.2299 34.2631 32.1811 34.0802C32.6242 33.9947 33.2521 33.7848 33.5774 33.6129C35.0641 32.829 36.6751 32.8476 37.6179 33.6586ZM7.07894 35.7447C6.85317 36.0376 6.86618 36.6793 7.18694 41.1096C7.50641 45.5205 7.43939 45.142 7.94298 45.3571C8.18307 45.4595 8.54482 45.7059 8.74652 45.9048C9.35942 46.5102 9.91441 46.4069 10.5299 45.5713C10.8116 45.1886 11.042 44.8229 11.042 44.7585C11.042 44.6942 11.1968 44.4013 11.3862 44.1075C11.5748 43.8129 11.9808 43.1652 12.2879 42.6666L12.8455 41.7598L12.7095 40.6855C12.6341 40.0946 12.4734 39.325 12.3523 38.9753C12.2313 38.6257 12.0693 37.9425 11.9932 37.4565C11.826 36.3974 11.8683 36.4364 10.7153 36.2653C10.2065 36.19 9.51102 35.9851 9.16943 35.8099C8.40103 35.4153 7.35676 35.3832 7.07894 35.7447ZM85.6088 35.7345C85.3882 36.4821 85.9881 44.5917 86.3043 45.1353C86.3609 45.2326 86.5451 45.3579 86.7142 45.413C86.8834 45.468 87.1918 45.683 87.4007 45.8896C87.9557 46.4407 89.1183 46.3518 89.1183 45.7584C89.1183 45.5366 90.296 43.5902 91.1587 42.3863C91.5621 41.8242 91.5986 40.8658 91.2498 39.9947C91.121 39.6729 90.9388 38.8433 90.8464 38.1507C90.6226 36.4855 90.4398 36.2704 89.2367 36.2586C89.009 36.2569 88.4501 36.0833 87.9947 35.8734C86.9986 35.4153 85.7246 35.3417 85.6088 35.7345ZM8.321 35.7802C8.321 36.1045 9.92807 36.565 11.0647 36.5676C11.7303 36.5693 11.7427 36.5913 11.8546 37.9543C11.9151 38.6909 12.0264 39.1768 12.2066 39.4943C12.6803 40.3282 12.6972 41.7929 12.2378 42.2306C12.0355 42.4236 11.8702 42.6682 11.8702 42.7741C11.8702 42.8799 11.6835 43.1948 11.4558 43.4742C11.228 43.7536 11.042 44.0558 11.042 44.1456C11.042 44.2345 10.8292 44.6087 10.569 44.9761C10.3087 45.3435 10.0953 45.7491 10.0953 45.8786C10.0953 46.274 9.35291 46.1741 8.984 45.7287C8.68731 45.3706 8.49993 45.2707 7.9085 45.1547C7.59294 45.0929 7.50836 44.4004 7.4999 41.8022C7.496 40.6592 7.43419 38.9973 7.36262 38.1084C7.19735 36.0723 7.29105 35.6456 7.90395 35.6456C8.13362 35.6456 8.321 35.7066 8.321 35.7802ZM86.9888 35.7743C86.9888 36.0351 87.6173 36.2628 88.97 36.4939C90.6239 36.7758 90.4944 36.6353 90.6551 38.3226C90.7911 39.7491 91.0293 40.7253 91.2414 40.7253C91.4945 40.7253 91.3852 41.9275 91.1223 42.0358C90.9889 42.0917 90.7944 42.3677 90.6909 42.6505C90.5875 42.9324 90.4073 43.1965 90.2908 43.2363C90.1743 43.2761 89.9986 43.558 89.9004 43.8637C89.8022 44.1693 89.646 44.419 89.553 44.419C89.4599 44.419 89.3168 44.6281 89.2355 44.8838C88.888 45.9768 88.2296 46.3324 87.6772 45.7279C87.4839 45.5162 87.1833 45.3021 87.0096 45.2529C86.8353 45.2038 86.6349 45.1403 86.5639 45.1133C86.4859 45.0828 86.3753 44.1253 86.2861 42.719C86.2054 41.4297 86.0649 40.1013 85.9745 39.7678C85.7682 39.0067 85.6303 36.9401 85.7363 36.2027C85.8157 35.6515 85.8229 35.6456 86.4026 35.6456C86.7253 35.6456 86.9888 35.7032 86.9888 35.7743ZM57.2372 37.3465C56.0009 37.4049 54.9515 37.4616 54.9053 37.4726C54.8591 37.4836 54.7634 37.7867 54.6925 38.1465C54.6216 38.5063 54.457 39.1353 54.3262 39.5434C54.1954 39.9523 54.0126 40.8447 53.9202 41.5279C53.8278 42.2111 53.6704 42.9332 53.5702 43.1322C52.9729 44.3183 52.9462 49.508 53.5246 51.865C53.6469 52.3636 53.7471 52.858 53.7471 52.963C53.7471 53.1696 54.4876 54.1711 55.2826 55.0406C55.554 55.3369 55.9691 55.839 56.2059 56.1564C56.4421 56.4739 56.7036 56.7338 56.7856 56.7338C56.8682 56.7338 57.0198 56.8998 57.122 57.1029C57.3855 57.627 58.258 58.0672 59.4682 58.2873L60.5099 58.477L60.7662 58.0816C60.9074 57.864 61.1423 57.6084 61.2887 57.5127C61.4351 57.417 61.5548 57.2663 61.5548 57.1774C61.5548 57.02 62.0076 56.2682 62.886 54.9695C63.13 54.6088 63.3297 54.2744 63.3297 54.227C63.3297 54.139 63.7448 53.5286 64.4299 52.6083L64.808 52.1012L64.778 48.8375C64.7383 44.5968 64.5724 41.858 64.3356 41.5507C64.238 41.4229 64.1573 41.257 64.1573 41.1824C64.1573 41.0157 62.0493 38.2625 61.9217 38.2625C61.8723 38.2625 61.763 38.0949 61.679 37.8908C61.5014 37.4608 60.7799 37.1695 59.9945 37.2127C59.7141 37.2279 58.4734 37.288 57.2372 37.3465ZM163.704 37.531C163.675 37.6368 163.597 38.05 163.531 38.4487C163.465 38.8475 163.303 39.4427 163.171 39.772C163.039 40.1005 162.858 40.865 162.77 41.4703C162.681 42.0765 162.516 42.7554 162.403 42.9806C162.29 43.2058 162.122 43.8814 162.032 44.4817C161.941 45.0828 161.74 45.9201 161.584 46.3434C161.428 46.7667 161.246 47.51 161.179 47.9951C161.112 48.4794 160.968 49.1203 160.859 49.4174C160.439 50.5722 161.56 50.8304 163.469 50.0185C163.794 49.8805 164.592 49.6511 165.243 49.5097L166.426 49.2523L166.418 48.4904C166.413 48.0391 166.299 47.4194 166.139 46.969C165.989 46.5508 165.802 45.6847 165.722 45.0447C165.642 44.4046 165.467 43.569 165.333 43.1881C165.199 42.8071 165.022 41.941 164.938 41.2637C164.856 40.5864 164.664 39.7102 164.513 39.3174C164.361 38.9237 164.237 38.4521 164.237 38.2684C164.237 37.6021 163.836 37.0476 163.704 37.531ZM60.9588 37.5911C61.1989 37.6538 61.3863 37.8256 61.4669 38.0568C61.5379 38.2583 61.7194 38.464 61.8703 38.5131C62.0219 38.563 62.2126 38.784 62.2939 39.0058C62.3752 39.2268 62.5737 39.4926 62.7344 39.5967C62.8951 39.7017 63.0597 39.9091 63.1 40.0582C63.1404 40.208 63.3284 40.4425 63.5177 40.5788C63.7071 40.7151 63.8776 40.9598 63.8977 41.1223C63.9172 41.2849 63.9843 41.5566 64.0461 41.726C64.7104 43.5352 64.8769 52.0986 64.253 52.356C64.1241 52.4093 63.966 52.6515 63.901 52.8936C63.8359 53.1366 63.6758 53.3787 63.5451 53.4329C63.4149 53.4871 63.2334 53.7614 63.143 54.0433C63.0525 54.3252 62.871 54.6004 62.7402 54.6545C62.6088 54.7087 62.5015 54.8306 62.5015 54.9255C62.5015 55.0203 62.2893 55.4241 62.031 55.8237C61.7721 56.2225 61.4975 56.7296 61.4207 56.9497C61.3433 57.1698 61.2112 57.3493 61.1267 57.3493C61.0421 57.3493 60.8775 57.4788 60.761 57.6363C60.3537 58.1891 57.4037 57.5694 57.2391 56.8964C57.1968 56.7228 57.0309 56.5374 56.8702 56.4849C56.7095 56.4324 56.4987 56.1903 56.4017 55.9456C56.2989 55.6874 56.1291 55.502 55.9951 55.502C55.8585 55.502 55.6893 55.3141 55.5806 55.0406C55.4798 54.7866 55.3516 54.5784 55.2957 54.5784C54.8955 54.5784 54.0106 53.0773 53.9339 52.2696C53.8896 51.804 53.7367 51.1115 53.5936 50.7305C53.2006 49.6841 53.1947 44.4876 53.5858 43.9314C53.9013 43.4835 53.9684 43.1957 54.0926 41.7505C54.1622 40.9462 54.2748 40.4425 54.4628 40.0996C54.6411 39.7728 54.7563 39.2869 54.8018 38.6646L54.8714 37.7232L55.8175 37.636C57.2228 37.5065 60.5229 37.4777 60.9588 37.5911ZM164.104 38.8009C164.178 39.3089 164.355 39.9286 164.496 40.1784C164.688 40.5196 164.772 40.9539 164.831 41.9165C164.89 42.8833 164.973 43.3117 165.167 43.6545C165.439 44.132 165.657 45.2961 165.657 46.2663C165.657 46.6126 165.766 47.0486 165.933 47.3695C166.26 47.9968 166.423 49.0195 166.212 49.1228C166.134 49.1609 165.472 49.254 164.741 49.3302C163.768 49.431 163.303 49.5503 163.011 49.7747C162.171 50.419 160.753 50.4088 161.102 49.7603C161.2 49.5791 161.28 49.2066 161.28 48.9332C161.28 48.2212 161.517 46.8818 161.643 46.8818C161.827 46.8818 162.068 45.9218 162.138 44.905C162.183 44.2514 162.282 43.8188 162.435 43.597C162.724 43.1779 162.786 42.9451 162.939 41.7006C163.012 41.1012 163.181 40.4662 163.354 40.1343C163.515 39.827 163.646 39.402 163.647 39.1887C163.653 37.5937 163.895 37.3871 164.104 38.8009ZM15.3258 41.588C15.2496 44.4309 14.7512 45.5747 13.096 46.7015C12.4799 47.1214 12.6022 47.9274 13.4383 48.9526C14.2925 50.0007 15.1189 51.6499 15.3232 52.7133C15.398 53.1044 15.5541 53.5971 15.6693 53.8088C15.7851 54.0204 15.9914 54.6351 16.1286 55.1752C16.2653 55.7145 16.4546 56.2563 16.549 56.3782C17.2211 57.2536 16.7546 58.405 15.4526 59.0815C14.2847 59.6893 13.7662 59.421 13.5196 58.0816C13.4402 57.6524 13.2561 57.0716 13.1097 56.7914C12.9639 56.5112 12.8071 56.0201 12.7616 55.7001C12.7161 55.3792 12.5254 54.768 12.3387 54.3413C12.152 53.9138 11.9626 53.267 11.9177 52.9029C11.8728 52.5389 11.7108 52.047 11.5573 51.8099C11.4037 51.5729 11.2788 51.3045 11.2788 51.2139C11.2788 51.004 10.9763 50.7982 10.4551 50.6526C10.23 50.5891 9.91051 50.4088 9.74525 50.2505C9.57998 50.093 9.04581 49.8306 8.55783 49.6672L7.67037 49.3709L7.46607 49.7044C7.12383 50.2623 7.23509 58.6836 7.59164 59.2432C7.66191 59.3532 7.98983 59.5327 8.321 59.6436C9.22864 59.9459 9.701 61.2014 9.09981 61.7136C8.70032 62.0539 2.95325 62.0886 2.61297 61.7534C2.01178 61.159 2.43144 59.9924 3.33843 59.7342C3.87229 59.5826 3.999 59.4744 4.02356 58.0816C4.02987 57.7244 4.02945 57.2826 4.02745 56.7338L4.02095 54.8095L3.96185 56.4057L3.93832 57.0411C3.91519 57.6643 3.89241 58.2317 3.87455 58.6403C3.85724 59.0365 3.84456 59.2834 3.84072 59.2872C3.83226 59.2948 3.53427 59.3863 3.17772 59.4904C2.14126 59.7918 1.61424 61.0067 2.19331 61.7601L2.47829 62.1318L5.78807 62.1648C9.44921 62.2021 9.74069 62.1352 9.74069 61.2606C9.74069 60.563 9.12389 59.5048 8.71724 59.5048C7.60791 59.5048 7.48298 58.9359 7.52072 54.0399L7.55195 49.8839L7.9046 49.8314C8.38281 49.7611 9.14861 50.0719 9.48109 50.4723C9.65741 50.6848 9.97102 50.8287 10.3673 50.8812C10.8598 50.9455 10.9893 51.0217 11.025 51.269C11.0498 51.4383 11.2293 51.8658 11.4245 52.2197C11.6458 52.621 11.8013 53.1256 11.8396 53.565C11.8787 54.0145 12.0036 54.4141 12.1864 54.6698C12.3484 54.8975 12.5202 55.3996 12.5827 55.8296C12.703 56.6568 12.8338 57.042 13.1181 57.412C13.2203 57.5449 13.3465 58.0063 13.3986 58.438C13.5638 59.7985 14.6035 60.4809 15.1852 59.6098C15.3466 59.3693 15.6322 59.1763 15.9256 59.1119C16.9549 58.8859 17.3987 56.9658 16.6609 55.9304C16.4962 55.6993 16.3082 55.1693 16.236 54.735C16.1657 54.3049 15.9809 53.758 15.8267 53.5192C15.6719 53.2805 15.5099 52.7802 15.4656 52.4076C15.3785 51.6686 15.1169 50.8846 14.9568 50.8846C14.9015 50.8846 14.787 50.6594 14.7018 50.3842C14.5508 49.8932 13.5944 48.5623 13.191 48.2813C12.8572 48.0493 12.9887 46.9089 13.3628 46.787C13.5196 46.7354 13.7428 46.5373 13.8579 46.3468C13.9731 46.1563 14.1722 45.9539 14.2997 45.8981C14.9824 45.5991 15.2955 44.9954 15.3739 43.6569C15.3864 43.4429 15.393 43.2101 15.394 42.9568C15.3948 42.7848 15.393 42.6033 15.3889 42.4117C15.368 41.4415 15.3401 41.0707 15.3258 41.588ZM90.715 89.5239C89.2836 89.5967 87.2341 89.7347 86.1605 89.8312C83.0928 90.1072 77.874 90.2621 71.2083 90.2765C61.815 90.2977 49.5128 90.5804 46.5309 90.8446C45.067 90.9741 43.1561 91.14 42.2836 91.2129C41.4111 91.2857 38.0837 91.427 34.8897 91.5261C29.2305 91.7013 28.1309 91.8097 28.2259 92.1805C28.3508 92.6699 33.5559 92.8646 49.9617 92.9924C61.6342 93.0839 64.7488 93.1736 67.9427 93.5097C74.1303 94.1616 123.998 94.1641 129.99 93.5131C133.165 93.1685 136.222 93.0796 148.089 92.989C165.377 92.857 169.56 92.6902 169.56 92.1306C169.56 91.742 169.271 91.7157 162.652 91.5134C157.051 91.3424 156.379 91.3026 151.283 90.8454C148.326 90.5796 135.829 90.296 126.293 90.2782C119.199 90.2655 114.694 90.1173 110.471 89.7584C107.092 89.4714 94.6494 89.3241 90.715 89.5239ZM105.325 89.9861C109.533 90.2206 117.632 90.4272 126.323 90.5212C135.696 90.6228 142.875 90.831 147.439 91.1349C149.293 91.2577 152.194 91.4304 153.886 91.5168C164.709 92.0738 165.749 92.1712 162.699 92.3397C159.45 92.5192 149.858 92.7503 138.862 92.9137C133.136 92.9983 127.201 93.1321 125.672 93.2108C124.143 93.2896 121.322 93.4386 119.402 93.5427C114.591 93.8043 83.2945 93.8052 78.4713 93.5436C76.552 93.4394 73.7575 93.2896 72.261 93.2108C70.7645 93.1313 64.8021 92.9983 59.0114 92.9145C45.0663 92.7122 33.0602 92.3744 33.2026 92.189C33.2573 92.1187 38.3537 91.7987 43.8692 91.5193C45.8211 91.4211 48.2167 91.2797 49.1927 91.2061C52.6547 90.9453 63.7754 90.6118 74.6859 90.4416C80.7694 90.3468 87.2907 90.1994 89.1776 90.1148C98.4029 89.6999 99.9618 89.6873 105.325 89.9861Z" fill="#FBFBFB"/>
<path d="M108.519 0.245485C112.716 0.330146 117.879 0.471529 119.994 0.560423C122.108 0.649318 125.303 0.781388 127.092 0.853349C128.881 0.926158 135.03 1.05992 140.755 1.15136C151.858 1.3283 162.356 1.60345 164.296 1.76854L165.48 1.86928L163.469 1.98188C162.362 2.04453 160.153 2.1639 158.559 2.24856C155.876 2.39079 151.681 2.63123 145.251 3.01051C141.457 3.23402 132.385 3.4626 120.527 3.63362C114.801 3.71574 108.785 3.85374 107.159 3.94009C100.076 4.31514 98.7386 4.3507 96.2753 4.2254C94.8439 4.15259 92.3683 4.02475 90.7742 3.94094C89.1801 3.85712 83.2184 3.71997 77.5253 3.63616C64.8008 3.44821 55.6327 3.21963 52.5051 3.01136C49.9559 2.84204 44.0514 2.50339 39.197 2.24856C37.5378 2.16136 35.2749 2.04114 34.1688 1.98103L32.1577 1.87182L33.4004 1.76854C35.42 1.59921 45.7215 1.33084 57.0595 1.15136C62.8827 1.05908 68.9779 0.924466 70.6045 0.851657C86.2054 0.152358 96.0971 -0.00511152 108.519 0.245485Z" fill="#FBFBFB"/>
<path d="M37.6179 33.6586C38.5528 34.4621 38.5222 34.2386 38.3824 39.2759C38.314 41.7234 38.2275 47.3983 38.1904 51.8853C38.1123 61.1607 38.0993 61.4257 37.6979 61.7678C37.1988 62.1928 35.8872 62.2173 35.4909 61.8092L35.1559 61.4638L35.2424 49.1109L35.3283 36.7581L35.0478 36.5633C34.6327 36.2738 33.0517 36.4778 32.6314 36.8749C31.5416 37.9018 30.0965 36.7174 30.6359 35.2392C30.902 34.5095 31.2299 34.2631 32.1811 34.0802C32.6242 33.9947 33.2521 33.7848 33.5774 33.6129C35.0641 32.829 36.6751 32.8476 37.6179 33.6586Z" fill="#FBFBFB"/>
<path fill-rule="evenodd" clip-rule="evenodd" d="M57.6516 32.5716C57.8793 32.6588 59.1617 32.8247 60.5027 32.9416L62.94 33.154L63.5783 34.0396C63.9296 34.5264 64.3311 35.0767 64.4716 35.263C64.711 35.5813 65.2205 36.3322 66.2986 37.9543C66.5517 38.3353 66.9095 38.8551 67.0943 39.1091C67.6246 39.8397 67.6903 40.6152 67.7293 46.6515C67.769 52.6896 67.7397 53.007 67.0618 53.9629C66.9115 54.1745 66.7215 54.5208 66.6389 54.7324C66.4918 55.1117 66.0403 55.8703 65.4586 56.7152C65.2959 56.9514 65.0708 57.3993 64.9576 57.7091C64.8451 58.019 64.7084 58.273 64.6544 58.273C64.6004 58.273 64.4423 58.5363 64.3031 58.858C64.1638 59.1805 63.888 59.6648 63.6902 59.934C63.4917 60.2041 63.3278 60.5122 63.3265 60.6189C63.3245 60.7256 63.0721 61.0329 62.7643 61.303L62.2054 61.7923L59.4259 61.9007L56.6457 62.009L56.1434 61.4621C55.6503 60.9245 51.8271 55.9651 51.0561 54.8611L50.6618 54.2964L50.5428 50.7043C50.4068 46.6067 50.518 44.5401 50.9676 42.8029C51.1212 42.2102 51.3079 41.102 51.3827 40.3401C51.5063 39.0769 51.8811 37.2694 52.2845 35.991C52.3854 35.6719 52.6703 35.3011 53.0705 34.9675C53.416 34.6805 53.7693 34.3342 53.8558 34.1988C53.9423 34.0633 54.0653 33.9524 54.1297 33.9524C54.1948 33.9524 54.414 33.7738 54.6183 33.5562C55.6919 32.4116 56.5273 32.1398 57.6516 32.5716ZM54.9053 37.4726C54.9515 37.4616 56.0009 37.4049 57.2372 37.3465C58.4734 37.288 59.7141 37.2279 59.9945 37.2127C60.7799 37.1695 61.5014 37.4608 61.679 37.8908C61.763 38.0949 61.8723 38.2625 61.9217 38.2625C62.0493 38.2625 64.1573 41.0157 64.1573 41.1824C64.1573 41.257 64.238 41.4229 64.3356 41.5507C64.5724 41.858 64.7383 44.5968 64.778 48.8375L64.808 52.1012L64.4299 52.6083C63.7448 53.5286 63.3297 54.139 63.3297 54.227C63.3297 54.2744 63.13 54.6088 62.886 54.9695C62.0076 56.2682 61.5548 57.02 61.5548 57.1774C61.5548 57.2663 61.4351 57.417 61.2887 57.5127C61.1423 57.6084 60.9074 57.864 60.7662 58.0816L60.5099 58.477L59.4682 58.2873C58.258 58.0672 57.3855 57.627 57.122 57.1029C57.0198 56.8998 56.8682 56.7338 56.7856 56.7338C56.7036 56.7338 56.4421 56.4739 56.2059 56.1564C55.9691 55.839 55.554 55.3369 55.2826 55.0406C54.4876 54.1711 53.7471 53.1696 53.7471 52.963C53.7471 52.858 53.6469 52.3636 53.5246 51.865C52.9462 49.508 52.9729 44.3183 53.5702 43.1322C53.6704 42.9332 53.8278 42.2111 53.9202 41.5279C54.0126 40.8447 54.1954 39.9523 54.3262 39.5434C54.457 39.1353 54.6216 38.5063 54.6925 38.1465C54.7634 37.7867 54.8591 37.4836 54.9053 37.4726Z" fill="#FBFBFB"/>
<path fill-rule="evenodd" clip-rule="evenodd" d="M90.1665 32.8603C90.7313 33.2743 91.5075 34.1649 93.2336 36.3813L94.2265 37.6555L94.1471 39.8448C94.0254 43.2067 93.5993 45.4883 93.0918 45.5002C93.0209 45.501 92.7502 45.7482 92.4899 46.0488C92.2297 46.3485 91.8744 46.6922 91.7014 46.8124C91.1099 47.2213 91.1405 47.8554 91.7879 48.6131C92.8432 49.85 93.2564 50.5011 93.4412 51.219C93.5433 51.6144 93.6995 52.0165 93.788 52.1122C93.8771 52.2087 94.0606 52.7641 94.1972 53.3482C94.3332 53.9315 94.4985 54.4522 94.5635 54.5047C94.7151 54.6266 95.0333 55.6121 95.0333 55.9617C95.0333 56.1082 95.1575 56.468 95.3098 56.7592C95.5831 57.2833 95.5837 57.296 95.3716 57.8107C95.0547 58.5803 94.9493 58.6751 93.8504 59.1822L92.8445 59.6462L92.6422 59.3058C92.5309 59.1187 92.404 58.7606 92.3611 58.51C92.3175 58.2586 92.1601 57.809 92.0098 57.5093C91.8601 57.2096 91.6571 56.5594 91.5602 56.065C91.4626 55.5706 91.298 55.044 91.1952 54.8958C91.0917 54.7477 90.9271 54.2177 90.8282 53.7174C90.73 53.2179 90.5478 52.6269 90.4242 52.406C90.3006 52.1841 90.1223 51.7625 90.0279 51.4688C89.8841 51.0217 89.7625 50.9007 89.2803 50.728C88.9635 50.6137 88.5672 50.3902 88.3994 50.2319C87.9016 49.7594 86.5783 49.4276 86.1371 49.6655L85.7734 49.8619L85.8593 54.0044C85.9634 59.0366 86.0128 59.2728 87.0324 59.6352C87.7143 59.8773 87.9355 60.2075 87.9355 60.9855C87.9355 61.9515 87.8815 61.9676 84.586 61.9676C81.3517 61.9676 80.7433 61.8329 80.906 61.1531C81.1682 60.0576 81.1916 60.0254 82.0101 59.6605C82.2977 59.5319 82.5879 59.3109 82.6556 59.1687C82.7746 58.9172 82.6374 52.1257 82.3738 45.1886C82.3172 43.707 82.2678 41.3865 82.2639 40.0311C82.2535 36.3094 81.895 35.4729 80.2196 35.2604C79.025 35.108 78.5182 34.2961 78.9554 33.2345C79.282 32.4387 81.1292 32.0687 81.9021 32.6435C82.2873 32.9297 83.0173 32.9356 83.1975 32.6529C83.5684 32.0712 89.3233 32.2431 90.1665 32.8603ZM86.3043 45.1353C85.9881 44.5917 85.3882 36.4821 85.6088 35.7345C85.7246 35.3417 86.9986 35.4153 87.9947 35.8734C88.4501 36.0833 89.009 36.2569 89.2367 36.2586C90.4398 36.2704 90.6226 36.4855 90.8464 38.1507C90.9388 38.8433 91.121 39.6729 91.2498 39.9947C91.5986 40.8658 91.5621 41.8242 91.1587 42.3863C90.296 43.5902 89.1183 45.5366 89.1183 45.7584C89.1183 46.3518 87.9557 46.4407 87.4007 45.8896C87.1918 45.683 86.8834 45.468 86.7142 45.413C86.5451 45.3579 86.3609 45.2326 86.3043 45.1353Z" fill="#FBFBFB"/>
<path d="M143.135 32.3142C143.598 32.4293 144.033 32.569 144.103 32.6249C144.173 32.6808 144.799 32.7968 145.494 32.8823C147.294 33.1041 147.54 33.3115 147.199 34.319C146.957 35.0327 146.616 35.3315 146.043 35.3349C145.18 35.34 144.813 35.8861 144.657 37.4006C144.615 37.8163 144.448 38.5317 144.286 38.9906C144.125 39.4494 143.923 40.2994 143.839 40.8785C143.754 41.4576 143.579 42.162 143.45 42.4439C143.321 42.7267 143.148 43.4768 143.066 44.1117C142.985 44.7467 142.818 45.4807 142.696 45.7431C142.573 46.0056 142.397 46.7328 142.304 47.3593C142.21 47.9858 142.001 48.8798 141.837 49.3455C141.675 49.8111 141.504 50.5383 141.46 50.9616C141.415 51.3849 141.258 52.0495 141.11 52.4398C140.962 52.8293 140.776 53.6522 140.696 54.2685C140.616 54.8857 140.454 55.6053 140.334 55.8694C140.215 56.1327 140.039 56.8439 139.943 57.4501C139.847 58.0554 139.638 58.9206 139.48 59.3736C139.321 59.8265 139.155 60.5089 139.11 60.8898C138.966 62.1233 138.859 62.2029 137.416 62.1665C136.383 62.1411 136.122 62.0861 135.952 61.8592C135.613 61.4046 135.034 59.7748 134.95 59.0374C134.907 58.659 134.751 58.0732 134.604 57.7345C134.456 57.3959 134.268 56.7025 134.185 56.1945C134.103 55.6866 133.932 55.0448 133.806 54.7688C133.68 54.492 133.503 53.8122 133.414 53.2568C133.325 52.7014 133.142 52.0148 133.006 51.7312C132.872 51.4467 132.688 50.7601 132.599 50.2048C132.51 49.6502 132.331 48.9696 132.202 48.6936C132.072 48.4167 131.902 47.775 131.824 47.267C131.745 46.7591 131.573 46.1114 131.44 45.8278C131.307 45.5442 131.125 44.8576 131.036 44.3022C130.946 43.7468 130.769 43.0729 130.641 42.8046C130.514 42.537 130.325 41.8386 130.22 41.2519C130.116 40.666 129.934 39.9786 129.816 39.7246C129.697 39.4706 129.533 38.8475 129.451 38.3395C129.367 37.8316 129.183 37.1382 129.038 36.7995C128.894 36.4609 128.743 35.9453 128.701 35.6532C128.585 34.8337 128.322 34.4138 127.924 34.4138C127.727 34.4138 127.436 34.2521 127.246 34.0379L126.914 33.662L127.151 33.0787C127.466 32.3024 127.855 32.2253 131.125 32.2871C133.896 32.3396 133.993 32.3692 134.133 33.1998C134.237 33.8119 134.055 34.0591 133.289 34.3486C132.941 34.4807 132.626 34.6509 132.591 34.7271C132.485 34.9497 132.887 37.6529 133.15 38.4928C133.284 38.9161 133.485 39.8863 133.6 40.6482C133.714 41.4102 133.902 42.272 134.018 42.5633C134.135 42.8545 134.295 43.6207 134.374 44.2658C134.453 44.9109 134.637 45.777 134.781 46.1893C134.926 46.6024 135.109 47.4643 135.189 48.1043C135.269 48.7444 135.441 49.5453 135.572 49.8839C135.704 50.2225 135.876 51.0539 135.956 51.7312C136.035 52.4085 136.205 53.2297 136.333 53.5565C136.461 53.8833 136.638 54.6799 136.726 55.3268C136.923 56.7677 137.034 57.1283 137.48 57.7912L137.829 58.3102L137.956 57.7912C138.026 57.5059 138.118 56.8219 138.161 56.2716C138.204 55.7213 138.361 54.856 138.511 54.3481C138.66 53.8401 138.846 52.8005 138.925 52.0385C139.003 51.2766 139.172 50.3487 139.301 49.9753C139.43 49.602 139.605 48.6673 139.69 47.8969C139.848 46.4585 139.892 46.2325 140.178 45.3918C140.269 45.1226 140.419 44.2218 140.511 43.3904C140.602 42.5599 140.781 41.5677 140.91 41.1867C141.039 40.8057 141.207 39.871 141.282 39.1091C141.359 38.3438 141.553 37.327 141.716 36.8385C142.142 35.5593 142.083 34.5577 141.573 34.3867C140.776 34.1192 140.269 32.8755 140.72 32.2897C140.909 32.0433 142.091 32.0551 143.135 32.3142Z" fill="#FBFBFB"/>
<path fill-rule="evenodd" clip-rule="evenodd" d="M164.212 32.9356C165.683 33.1617 165.83 33.2734 165.953 34.2597C165.989 34.556 166.15 35.1453 166.31 35.5686C166.471 35.9919 166.662 36.8233 166.735 37.4159C166.808 38.0085 166.974 38.7239 167.106 39.0058C167.237 39.2877 167.413 39.9921 167.499 40.572C167.583 41.1511 167.787 42.0062 167.951 42.4735C168.115 42.94 168.284 43.6901 168.327 44.1397C168.37 44.5901 168.527 45.2487 168.675 45.6043C168.824 45.959 169.012 46.7557 169.093 47.3745C169.175 47.9926 169.346 48.7291 169.475 49.011C169.605 49.293 169.779 49.9965 169.864 50.5747C169.948 51.1521 170.132 51.9513 170.272 52.3492C170.411 52.748 170.58 53.4651 170.648 53.9417C170.715 54.4192 170.899 55.1904 171.056 55.6561C171.214 56.1217 171.415 57.0115 171.505 57.6329C171.693 58.9494 172.069 59.5937 172.746 59.7562C173.682 59.9823 174.178 61.2175 173.584 61.8431C173.118 62.3333 167.804 62.2596 167.355 61.7559C166.921 61.2708 167.144 60.7874 168.072 60.1965C169.12 59.5293 169.178 58.8453 168.431 55.9727C168.272 55.3589 168.141 54.7231 168.141 54.5589C168.141 53.9713 167.802 53.2119 167.429 52.9605C166.973 52.654 164.085 52.8538 162.877 53.2754C162.487 53.4117 161.661 53.5912 161.043 53.675C159.703 53.8562 159.738 53.8181 159.557 55.2285C159.477 55.8449 159.3 56.8964 159.163 57.566C158.783 59.4227 158.769 59.371 159.919 60.3463C160.985 61.2505 161.045 61.358 160.718 61.7949C160.373 62.2563 160.182 62.2757 157.487 62.1208C154.425 61.9447 154.182 61.8541 154.182 60.8898C154.182 60.2041 154.447 59.9306 155.31 59.7291C156.027 59.5607 156.109 59.4523 156.264 58.466C156.343 57.9622 156.525 57.2138 156.669 56.8032C156.812 56.3926 157.004 55.5071 157.094 54.8349C157.184 54.1635 157.357 53.3982 157.479 53.134C157.6 52.8707 157.765 52.1003 157.845 51.423C157.924 50.7457 158.092 49.9762 158.215 49.712C158.339 49.4479 158.514 48.6826 158.604 48.0112C158.694 47.339 158.884 46.4585 159.025 46.0547C159.167 45.65 159.358 44.7645 159.45 44.0872C159.541 43.4099 159.717 42.6361 159.841 42.3677C159.964 42.0993 160.131 41.3255 160.213 40.6482C160.293 39.9709 160.468 39.1396 160.601 38.8009C160.734 38.4623 160.909 37.691 160.99 37.0882C161.071 36.4846 161.221 35.7574 161.323 35.4712C161.426 35.1859 161.619 34.4908 161.752 33.9253C162.069 32.5775 162.015 32.5995 164.212 32.9356ZM163.531 38.4487C163.597 38.05 163.675 37.6368 163.704 37.531C163.836 37.0476 164.237 37.6021 164.237 38.2684C164.237 38.4521 164.361 38.9237 164.513 39.3174C164.664 39.7102 164.856 40.5864 164.938 41.2637C165.022 41.941 165.199 42.8071 165.333 43.1881C165.467 43.569 165.642 44.4046 165.722 45.0447C165.802 45.6847 165.989 46.5508 166.139 46.969C166.299 47.4194 166.413 48.0391 166.418 48.4904L166.426 49.2523L165.243 49.5097C164.592 49.6511 163.794 49.8805 163.469 50.0185C161.56 50.8304 160.439 50.5722 160.859 49.4174C160.968 49.1203 161.112 48.4794 161.179 47.9951C161.246 47.51 161.428 46.7667 161.584 46.3434C161.74 45.9201 161.941 45.0828 162.032 44.4817C162.122 43.8814 162.29 43.2058 162.403 42.9806C162.516 42.7554 162.681 42.0765 162.77 41.4703C162.858 40.865 163.039 40.1005 163.171 39.772C163.303 39.4427 163.465 38.8475 163.531 38.4487Z" fill="#FBFBFB"/>
<path fill-rule="evenodd" clip-rule="evenodd" d="M90.1665 32.8603C90.7313 33.2743 91.5075 34.1649 93.2336 36.3813L94.2265 37.6555L94.1471 39.8448C94.0254 43.2067 93.5993 45.4883 93.0918 45.5002C93.0209 45.501 92.7502 45.7482 92.4899 46.0488C92.2297 46.3485 91.8744 46.6922 91.7014 46.8124C91.1099 47.2213 91.1405 47.8554 91.7879 48.6131C92.8432 49.85 93.2564 50.5011 93.4412 51.219C93.5433 51.6144 93.6995 52.0165 93.788 52.1122C93.8771 52.2087 94.0606 52.7641 94.1972 53.3482C94.3332 53.9315 94.4985 54.4522 94.5635 54.5047C94.7151 54.6266 95.0333 55.6121 95.0333 55.9617C95.0333 56.1082 95.1575 56.468 95.3098 56.7592C95.5831 57.2833 95.5837 57.296 95.3716 57.8107C95.0547 58.5803 94.9493 58.6751 93.8504 59.1822L92.8445 59.6462L92.6422 59.3058C92.5309 59.1187 92.404 58.7606 92.3611 58.51C92.3175 58.2586 92.1601 57.809 92.0098 57.5093C91.8601 57.2096 91.6571 56.5594 91.5602 56.065C91.4626 55.5706 91.298 55.044 91.1952 54.8958C91.0917 54.7477 90.9271 54.2177 90.8282 53.7174C90.73 53.2179 90.5478 52.6269 90.4242 52.406C90.3006 52.1841 90.1223 51.7625 90.0279 51.4688C89.8841 51.0217 89.7625 50.9007 89.2803 50.728C88.9635 50.6137 88.5672 50.3902 88.3994 50.2319C87.9016 49.7594 86.5783 49.4276 86.1371 49.6655L85.7734 49.8619L85.8593 54.0044C85.9634 59.0366 86.0128 59.2728 87.0324 59.6352C87.7143 59.8773 87.9355 60.2075 87.9355 60.9855C87.9355 61.9515 87.8815 61.9676 84.586 61.9676C81.3517 61.9676 80.7433 61.8329 80.906 61.1531C81.1682 60.0576 81.1916 60.0254 82.0101 59.6605C82.2977 59.5319 82.5879 59.3109 82.6556 59.1687C82.7746 58.9172 82.6374 52.1257 82.3738 45.1886C82.3172 43.707 82.2678 41.3865 82.2639 40.0311C82.2535 36.3094 81.895 35.4729 80.2196 35.2604C79.025 35.108 78.5182 34.2961 78.9554 33.2345C79.282 32.4387 81.1292 32.0687 81.9021 32.6435C82.2873 32.9297 83.0173 32.9356 83.1975 32.6529C83.5684 32.0712 89.3233 32.2431 90.1665 32.8603ZM86.3043 45.1353C85.9881 44.5917 85.3882 36.4821 85.6088 35.7345C85.7246 35.3417 86.9986 35.4153 87.9947 35.8734C88.4501 36.0833 89.009 36.2569 89.2367 36.2586C90.4398 36.2704 90.6226 36.4855 90.8464 38.1507C90.9388 38.8433 91.121 39.6729 91.2498 39.9947C91.5986 40.8658 91.5621 41.8242 91.1587 42.3863C90.296 43.5902 89.1183 45.5366 89.1183 45.7584C89.1183 46.3518 87.9557 46.4407 87.4007 45.8896C87.1918 45.683 86.8834 45.468 86.7142 45.413C86.5451 45.3579 86.3609 45.2326 86.3043 45.1353Z" fill="#FBFBFB"/>
<path fill-rule="evenodd" clip-rule="evenodd" d="M3.82901 51.5771C3.78232 49.9785 3.6875 47.9444 3.61189 46.9027L3.96185 56.4057L4.02095 54.8095L4.02745 56.7338C4.02945 57.2826 4.02987 57.7244 4.02356 58.0816C3.999 59.4744 3.87229 59.5826 3.33843 59.7342C2.43144 59.9924 2.01178 61.159 2.61297 61.7534C2.95325 62.0886 8.70032 62.0539 9.09981 61.7136C9.701 61.2014 9.22864 59.9459 8.321 59.6436C7.98983 59.5327 7.66191 59.3532 7.59164 59.2432C7.23509 58.6836 7.12383 50.2623 7.46607 49.7044L7.67037 49.3709L8.55783 49.6672C9.04581 49.8306 9.57998 50.093 9.74525 50.2505C9.91051 50.4088 10.23 50.5891 10.4551 50.6526C10.9763 50.7982 11.2788 51.004 11.2788 51.2139C11.2788 51.3045 11.4037 51.5729 11.5573 51.8099C11.7108 52.047 11.8728 52.5389 11.9177 52.9029C11.9626 53.267 12.152 53.9138 12.3387 54.3413C12.5254 54.768 12.7161 55.3792 12.7616 55.7001C12.8071 56.0201 12.9639 56.5112 13.1097 56.7914C13.2561 57.0716 13.4402 57.6524 13.5196 58.0816C13.7662 59.421 14.2847 59.6893 15.4526 59.0815C16.7546 58.405 17.2211 57.2536 16.549 56.3782C16.4546 56.2563 16.2653 55.7145 16.1286 55.1752C15.9914 54.6351 15.7851 54.0204 15.6693 53.8088C15.5541 53.5971 15.398 53.1044 15.3232 52.7133C15.1189 51.6499 14.2925 50.0007 13.4383 48.9526C12.6022 47.9274 12.4799 47.1214 13.096 46.7015C14.7512 45.5747 15.2496 44.4309 15.3258 41.588C15.3401 41.0707 15.368 41.4415 15.3889 42.4117C15.393 42.6033 15.3948 42.7848 15.394 42.9568L16.9214 42.7837L15.4762 40.0996C15.4601 39.9725 15.4459 39.5895 15.439 39.0354L15.4188 37.4227L14.4428 36.2239C13.9061 35.5652 13.0746 34.5416 12.5957 33.9499C12.1162 33.3589 11.6353 32.8747 11.5273 32.8747C11.4193 32.8747 11.2261 32.7807 11.0979 32.6656C10.6444 32.26 5.38078 32.1711 4.72754 32.558C4.08406 32.9399 3.50239 32.9636 3.12958 32.6232C2.17444 31.7529 -0.0910758 32.7858 0.103464 34.0032C0.26287 34.9997 0.408614 35.1317 1.47566 35.2528C3.64683 35.4992 3.79518 36.2933 3.87455 48.1136C3.90644 52.8157 3.89407 53.7902 3.82901 51.5771ZM7.18694 41.1096C6.86618 36.6793 6.85317 36.0376 7.07894 35.7447C7.35676 35.3832 8.40103 35.4153 9.16943 35.8099C9.51102 35.9851 10.2065 36.19 10.7153 36.2653C11.8683 36.4364 11.826 36.3974 11.9932 37.4565C12.0693 37.9425 12.2313 38.6257 12.3523 38.9753C12.4734 39.325 12.6341 40.0946 12.7095 40.6855L12.8455 41.7598L12.2879 42.6666C11.9808 43.1652 11.5748 43.8129 11.3862 44.1075C11.1968 44.4013 11.042 44.6942 11.042 44.7585C11.042 44.8229 10.8116 45.1886 10.5299 45.5713C9.91441 46.4069 9.35942 46.5102 8.74652 45.9048C8.54482 45.7059 8.18307 45.4595 7.94298 45.3571C7.43939 45.142 7.50641 45.5205 7.18694 41.1096Z" fill="#FBFBFB"/>
<path d="M105.325 89.9861C109.533 90.2206 117.632 90.4272 126.323 90.5212C135.696 90.6228 142.875 90.831 147.439 91.1349C149.293 91.2577 152.194 91.4304 153.886 91.5168C164.709 92.0738 165.749 92.1712 162.699 92.3397C159.45 92.5192 149.858 92.7503 138.862 92.9137C133.136 92.9983 127.201 93.1321 125.672 93.2108C124.143 93.2896 121.322 93.4386 119.402 93.5427C114.591 93.8043 83.2945 93.8052 78.4713 93.5436C76.552 93.4394 73.7575 93.2896 72.261 93.2108C70.7645 93.1313 64.8021 92.9983 59.0114 92.9145C45.0663 92.7122 33.0602 92.3744 33.2026 92.189C33.2573 92.1187 38.3537 91.7987 43.8692 91.5193C45.8211 91.4211 48.2167 91.2797 49.1927 91.2061C52.6547 90.9453 63.7754 90.6118 74.6859 90.4416C80.7694 90.3468 87.2907 90.1994 89.1776 90.1148C98.4029 89.6999 99.9618 89.6873 105.325 89.9861Z" fill="#FBFBFB"/>
<path d="M193.658 32.7849C192.837 32.8185 192.445 32.8186 192.47 32.7848C192.296 32.8304 192.127 32.8743 191.978 32.9128L189.934 33.033C187.773 33.1608 187.642 33.2057 187.066 34.0193C186.904 34.247 186.627 34.6314 186.448 34.8735C186.269 35.1156 186.122 35.3688 186.122 35.4357C186.122 35.5525 186.023 35.6973 185.137 36.8766C184.915 37.1729 184.643 37.6445 184.534 37.9238C184.425 38.2032 184.258 38.4708 184.164 38.5173C183.926 38.6367 183.949 38.9355 184.275 39.9362C184.429 40.412 184.616 41.3094 184.69 41.93C184.763 42.5497 184.936 43.3786 185.073 43.7705C185.21 44.1625 185.39 44.9939 185.474 45.6178C185.537 46.094 185.494 46.7683 185.574 47.1746C185.598 47.2509 185.62 47.3222 185.642 47.3879C185.975 47.534 186.318 47.6737 186.668 47.8071C186.858 47.8019 187.086 47.796 187.364 47.8055C187.553 47.8071 187.939 48.0682 188.115 48.1864L188.133 48.1991C188.593 48.5115 188.801 48.4193 190.147 48.6479C190.832 48.7647 191.717 49.006 192.113 49.1846C192.51 49.3632 193.398 49.6054 194.089 49.723C195.638 49.988 195.538 49.8941 195.7 51.2309C195.775 51.8446 195.966 52.8817 196.125 53.5353C196.68 55.8161 196.543 56.418 195.409 56.6864C195.214 56.7321 194.868 56.9277 194.64 57.1199C194.412 57.3121 193.938 57.5559 193.586 57.6617C193.234 57.7675 192.761 58.0173 192.534 58.2171C192.008 58.6819 191.469 58.6793 190.758 58.2103C190.448 58.0063 189.851 57.7548 189.431 57.6507C189.01 57.5474 188.487 57.3231 188.27 57.1537C187.845 56.821 186.707 56.4637 185.634 56.3241L184.969 56.2377L184.658 57.0928C184.487 57.5627 184.298 57.9868 184.238 58.0351C184.178 58.0833 184.038 58.4855 183.926 58.9291C183.815 59.3727 183.594 60.0271 183.436 60.3844C182.894 61.6018 183.242 62.1149 184.612 62.1191L185.408 62.1208L185.642 61.5222C185.989 60.6392 187.679 60.6401 189.169 61.5231C190.709 62.4357 193.279 62.3485 193.745 61.3682C193.782 61.2894 194.079 61.137 194.406 61.0278C194.732 60.9195 195.106 60.701 195.236 60.5427C195.367 60.3844 195.749 60.149 196.085 60.0187C196.421 59.8891 196.859 59.625 197.058 59.4328C197.257 59.2406 197.449 59.1153 197.715 58.985C198.699 58.6584 198.623 58.0726 198.769 53.2225C198.768 52.7878 198.769 52.3268 198.773 51.8387V51.0982L199.051 50.3464L199.121 49.9668L198.706 49.2837C197.309 46.9834 196.931 46.6355 195.511 46.3358C194.948 46.2172 194.295 45.9903 194.06 45.832C193.826 45.6737 193.182 45.4553 192.629 45.3469C192.076 45.2386 191.357 44.9922 191.031 44.8C190.706 44.6078 190.137 44.4046 189.768 44.3479C189.053 44.2396 188.907 44.1109 188.786 43.4844C188.744 43.2668 188.582 42.8968 188.427 42.6606C188.271 42.4244 188.08 41.9791 188.003 41.6709C187.926 41.3619 187.737 40.9141 187.584 40.6745C187.166 40.0217 187.23 39.6653 187.927 38.7713C188.268 38.3336 188.678 37.7892 188.838 37.5623C189.511 36.6116 189.806 36.4321 190.859 36.3348C191.894 36.2382 192.78 36.0401 193.401 35.7658C193.835 35.5745 194.505 36.0867 194.96 36.957C195.114 37.2516 195.288 37.4929 195.347 37.4929C195.406 37.4929 195.524 37.6809 195.609 37.9111C195.694 38.1414 195.871 38.4013 196.002 38.4885C196.134 38.5757 196.36 38.8026 196.505 38.9931C196.65 39.1836 196.853 39.3394 196.956 39.3394C197.153 39.3394 198.188 38.0788 198.188 37.8392C198.188 37.763 198.329 37.5319 198.501 37.327C199.566 36.0545 200.055 34.6661 199.62 34.1446C198.531 32.8391 198.571 32.8535 197.846 33.4935C197.221 34.0438 196.86 34.0735 196.57 33.5985C196.138 32.8882 195.501 32.7104 193.658 32.7849Z" fill="#FBFBFB"/>
<path d="M112.384 39.7923C112.467 42.1256 112.587 45.2123 112.651 46.6515C112.692 47.5966 112.775 51.5452 112.824 54.6485L112.865 54.9255L112.864 57.0636L112.865 57.3493C112.867 57.714 112.868 58.0185 112.863 58.273L112.863 57.9498C112.862 57.5147 112.856 56.8879 112.846 56.1485L112.783 57.5364C112.695 59.4633 112.765 59.3075 111.88 59.5166C110.963 59.7334 110.685 59.9865 110.528 60.7484C110.401 61.3597 110.582 62.1123 110.858 62.125C112.314 62.1928 114.61 62.4586 114.783 62.5788C115.565 63.124 116.735 63.0385 116.982 62.418C117.344 61.5053 117.186 60.7501 116.582 60.5089C116.429 60.4479 116.117 60.1448 115.888 59.8358L115.492 59.3007C115.6 60.5237 115.813 60.4433 116.23 60.5893C116.831 60.8001 117.073 61.1404 116.978 61.6433C116.828 62.4383 116.707 62.4857 115.302 62.2944C114.597 62.1987 113.541 62.1199 112.955 62.1199C111.073 62.1191 110.494 61.7331 110.885 60.7366C111.169 60.0111 111.234 59.956 112.057 59.741C112.253 59.6898 112.403 59.6455 112.516 59.5751C112.635 59.5015 112.715 59.3994 112.767 59.2309C112.828 59.0372 112.853 58.7559 112.862 58.3296C112.862 58.311 112.863 58.2921 112.863 58.273C112.864 58.182 112.864 58.0737 112.863 57.9498L112.863 58.273C112.863 58.2921 112.862 58.311 112.862 58.3296C112.853 58.7559 112.828 59.0372 112.767 59.2309C112.715 59.3994 112.635 59.5015 112.516 59.5751C112.403 59.6455 112.253 59.6898 112.057 59.741C111.234 59.956 111.169 60.0111 110.885 60.7366C110.494 61.7331 111.073 62.1191 112.955 62.1199C113.541 62.1199 114.597 62.1987 115.302 62.2944C116.707 62.4857 116.828 62.4383 116.978 61.6433C117.073 61.1404 116.831 60.8001 116.23 60.5893C115.813 60.4433 115.6 60.5237 115.492 59.3007L115.472 59.2736L115.475 59.091C115.395 57.9644 115.382 55.8982 115.38 52.0385C115.38 51.2774 115.38 50.4465 115.38 49.5393C115.38 49.538 115.38 49.5368 115.38 49.5356V49.4917L115.38 49.437L115.381 41.5452V38.5472V37.0481V35.5491L115.706 35.1537C115.885 34.9362 116.238 34.6636 116.491 34.5476C117.286 34.1835 117.459 33.3581 116.904 32.5817C116.648 32.2253 111.507 32.0763 110.839 32.4065C109.809 32.9161 110.128 34.1395 111.38 34.4815C112.138 34.689 112.219 35.1173 112.384 39.7923Z" fill="#FBFBFB"/>
</svg>
