<svg width="201" height="95" viewBox="0 0 201 95" fill="none" xmlns="http://www.w3.org/2000/svg">
<path fill-rule="evenodd" clip-rule="evenodd" d="M82.1441 1C73.3989 1.09821 66.3506 1.39791 65.9908 1.68745C65.9335 1.73316 59.5371 1.83814 51.7756 1.92111C32.671 2.12599 28.5954 2.27584 28.706 2.77111C28.775 3.08266 29.5538 3.16393 33.7608 3.29939C38.1891 3.44162 42.9888 3.69307 44.2894 3.84969C47.5582 4.24336 51.8713 4.38221 65.2868 4.52698C79.2162 4.67683 83.9457 4.8089 87.113 5.13823C91.6987 5.61487 107.336 5.61656 111.837 5.14161C114.99 4.80805 119.6 4.67683 133.604 4.52274C143.174 4.41692 149.239 4.28654 151.053 4.14769C158.367 3.58724 160.686 3.45009 165.117 3.31379C170.076 3.1614 170.555 3.08605 170.053 2.54337C169.797 2.26653 163.449 2.09467 146.937 1.91942C139.241 1.8373 132.894 1.72978 132.833 1.68067C132.061 1.06011 106.898 0.722312 82.1441 1ZM109.057 1.14731C113.254 1.23197 118.417 1.37335 120.532 1.46225C122.646 1.55114 125.841 1.68321 127.63 1.75517C129.419 1.82798 135.568 1.96175 141.293 2.05318C152.396 2.23012 162.894 2.50527 164.834 2.67036L166.018 2.77111L164.007 2.88371C162.9 2.94635 160.691 3.06573 159.097 3.15039C156.414 3.29262 152.219 3.53305 145.789 3.91234C141.996 4.13584 132.923 4.36443 121.065 4.53544C115.339 4.61756 109.323 4.75556 107.697 4.84192C100.614 5.21696 99.2767 5.25252 96.8133 5.12722C95.3819 5.05441 92.9063 4.92658 91.3122 4.84276C89.7182 4.75895 83.7564 4.6218 78.0633 4.53798C65.3388 4.35004 56.1707 4.12145 53.0431 3.91319C50.4939 3.74386 44.5894 3.40522 39.735 3.15039C38.0758 3.06319 35.8129 2.94297 34.7068 2.88286L32.6957 2.77365L33.9384 2.67036C35.958 2.50104 46.2595 2.23266 57.5975 2.05318C63.4207 1.9609 69.5159 1.82629 71.1425 1.75348C86.7435 1.05418 96.6351 0.896713 109.057 1.14731ZM141.116 33.0069C140.537 33.7596 140.967 35.2039 141.826 35.3927L142.299 35.4968V36.2452C142.299 36.7024 142.238 37.0419 142.142 37.1172C141.899 37.3077 141.82 37.7259 141.703 39.453C141.635 40.4664 141.532 41.1462 141.423 41.3029C141.137 41.7135 141.012 42.3112 140.891 43.8537C140.805 44.956 140.71 45.4428 140.513 45.8026C140.31 46.1742 140.227 46.6297 140.143 47.8412C140.084 48.6988 139.962 49.5734 139.872 49.785C139.504 50.6528 139.433 51.0092 139.33 52.5247C139.248 53.7218 139.168 54.1849 139.001 54.4185C138.772 54.7369 138.513 56.083 138.513 56.949C138.513 57.2208 138.481 57.656 138.44 57.9167L138.368 58.39L137.975 57.8473C137.66 57.413 137.566 57.1319 137.503 56.4309C137.371 54.9621 137.209 54.1874 136.959 53.842C136.781 53.5956 136.697 53.185 136.626 52.2258C136.527 50.8899 136.369 50.1643 136.157 50.0703C136.014 50.0068 135.792 48.6201 135.792 47.7845C135.792 47.4247 135.68 46.9972 135.492 46.6348C135.276 46.2225 135.158 45.712 135.073 44.8391C134.941 43.4651 134.835 43.0198 134.551 42.6498C134.416 42.4746 134.323 41.9573 134.254 40.9955C134.172 39.8602 134.093 39.4835 133.835 39.0009C133.552 38.4676 133.516 38.2559 133.502 36.9818L133.486 35.5586L134.123 35.3715C134.887 35.1488 134.99 34.9846 134.923 34.1067C134.833 32.9138 134.898 32.9358 131.253 32.8842C127.491 32.8317 127.525 32.8207 127.424 34.1896C127.358 35.0743 127.387 35.1184 128.272 35.4722L128.855 35.7051L129.071 36.8573C129.199 37.5448 129.379 38.1103 129.516 38.2584C129.668 38.4227 129.773 38.7918 129.823 39.3362C129.926 40.4656 130.082 41.0793 130.345 41.3884C130.491 41.5619 130.594 41.9708 130.649 42.6007C130.727 43.4939 131.004 44.3972 131.199 44.3972C131.247 44.3972 131.316 44.6571 131.352 44.9746C131.49 46.1827 131.675 46.9489 131.906 47.2689C132.064 47.4882 132.177 47.9377 132.24 48.593C132.337 49.6089 132.499 50.1787 132.72 50.2744C132.789 50.304 132.917 50.8653 133.004 51.5206C133.144 52.5653 133.29 53.0419 133.559 53.3256C133.598 53.3679 133.716 53.9495 133.82 54.6183C133.939 55.3828 134.103 55.9627 134.261 56.1812C134.431 56.4174 134.541 56.8466 134.606 57.5205C134.701 58.517 134.887 59.1748 135.073 59.1748C135.196 59.1748 135.438 60.3787 135.438 60.9916C135.438 61.2481 135.578 61.6757 135.763 61.9847C135.942 62.2844 136.141 62.6417 136.206 62.7796C136.279 62.9337 136.621 63.0946 137.094 63.1979C137.517 63.291 137.913 63.4281 137.975 63.5027C138.63 64.2959 139.709 63.2182 139.882 61.5995C139.925 61.1973 140.005 60.868 140.061 60.868C140.255 60.868 140.491 60.0172 140.565 59.0512C140.614 58.4188 140.748 57.8397 140.951 57.391C141.165 56.9152 141.292 56.3395 141.362 55.5293C141.432 54.7174 141.534 54.2568 141.693 54.0333C141.951 53.671 142.122 52.9048 142.238 51.5934C142.28 51.1066 142.364 50.7087 142.422 50.7087C142.622 50.7087 142.858 49.8655 142.941 48.8614C142.998 48.1663 143.116 47.6854 143.327 47.285C143.555 46.8532 143.653 46.4155 143.719 45.5452C143.785 44.6614 143.869 44.2956 144.068 44.0205C144.256 43.7589 144.38 43.2619 144.515 42.2231C144.617 41.4341 144.773 40.6941 144.861 40.5798C145.145 40.2099 145.227 39.8772 145.313 38.7469C145.378 37.8927 145.464 37.538 145.685 37.2078C145.843 36.9716 146.026 36.6914 146.093 36.5855C146.159 36.478 146.473 36.3934 146.806 36.3934C147.323 36.3934 147.445 36.329 147.757 35.893C148.73 34.5334 148.448 33.9086 146.768 33.6986C146.331 33.6436 145.772 33.4743 145.526 33.3219C144.598 32.747 141.486 32.5252 141.116 33.0069ZM1.65451 32.9858C0.784614 33.1195 0.516553 33.5733 0.539326 34.872C0.562749 36.1978 0.731263 36.3934 1.85036 36.3934H2.73132L3.2694 37.0842L3.80812 37.7742L3.85497 39.7959L3.90181 41.8176C3.91172 42.2461 3.92366 42.6892 3.93703 43.1324C3.99304 44.9883 4.07419 46.8445 4.13669 47.6304C4.14102 47.6848 4.14542 47.7429 4.1499 47.8046C4.22551 48.8462 4.32033 50.8803 4.36702 52.479C4.43208 54.692 4.44444 53.7175 4.41256 49.0155C4.33319 37.1951 4.18484 36.401 2.01367 36.1546C0.946623 36.0336 0.80088 35.9015 0.641474 34.905C0.446934 33.6876 2.71245 32.6547 3.66758 33.5251C4.0404 33.8654 4.62207 33.8417 5.26555 33.4599C5.91879 33.073 11.1824 33.1619 11.6359 33.5674C11.7641 33.6825 11.9573 33.7765 12.0654 33.7765C12.1734 33.7765 12.6542 34.2608 13.1337 34.8517C13.6126 35.4435 14.4441 36.467 14.9809 37.1257L15.9568 38.3245L15.977 39.9373C15.9839 40.4913 15.9981 40.8744 16.0142 41.0015C16.0239 41.0779 16.0342 41.0618 16.044 40.9346C16.07 40.5959 16.1409 40.2531 16.2014 40.1726C16.3342 39.9965 16.3511 38.3947 16.2203 38.3947C16.1702 38.3947 16.0316 38.1585 15.9119 37.8699C15.7922 37.5812 15.474 37.1358 15.2047 36.8793C14.9353 36.6236 14.3823 35.9938 13.9756 35.4799C13.5683 34.9668 13.1916 34.5461 13.1376 34.5461C13.0836 34.5461 12.9684 34.3734 12.8812 34.1617C12.7941 33.95 12.6561 33.7765 12.5748 33.7765C12.4928 33.7765 12.2521 33.586 12.04 33.3532L11.6528 32.9299H8.43285C5.27856 32.9299 5.20439 32.9367 4.85174 33.2761C4.4028 33.7079 4.27788 33.7088 4.01437 33.2846C3.7808 32.9104 2.88617 32.797 1.65451 32.9858ZM56.3555 33.0018C56.2253 33.073 56.0262 33.277 55.913 33.4539C55.7998 33.6317 55.602 33.7765 55.4732 33.7765C55.3444 33.7765 55.1206 33.9839 54.9761 34.2379C54.8323 34.4919 54.6612 34.7001 54.5962 34.7001C54.1713 34.7001 52.7496 36.1969 52.6221 36.7777C52.4809 37.4211 52.3827 37.7242 52.0827 38.4371C51.976 38.6919 51.8615 39.5783 51.801 40.6256C51.7197 42.0343 51.6533 42.4509 51.4698 42.7074C51.2376 43.0308 51.0678 44.1238 50.909 46.3097C50.8661 46.8956 50.7737 47.495 50.7027 47.6423C50.6097 47.837 50.613 48.0783 50.7158 48.5244C50.7932 48.8622 50.8921 50.5444 50.9344 52.2631L51.0118 55.3879L51.4067 55.9009C51.6234 56.1837 51.801 56.4792 51.801 56.5588C51.801 56.6392 51.9507 56.8043 52.1328 56.927C52.3157 57.0498 52.5252 57.3232 52.5987 57.534C52.6729 57.744 52.8349 57.9582 52.9592 58.0098C53.0834 58.0615 53.2454 58.2757 53.319 58.4873C53.3931 58.699 53.5818 58.947 53.738 59.0402C53.8948 59.1325 54.0809 59.3754 54.1524 59.5795C54.224 59.7835 54.4159 60.0172 54.5799 60.0976C54.7432 60.1789 54.8766 60.3533 54.8766 60.4862C54.8766 60.6199 55.034 60.846 55.2253 60.9891C55.4173 61.1321 55.6294 61.4073 55.697 61.5995C55.7647 61.7925 55.9527 62.0287 56.1154 62.1252C56.278 62.2217 56.4934 62.463 56.593 62.662L56.7751 63.0226H59.8891H63.0024L63.3466 62.6383C63.5352 62.4266 63.7259 62.2539 63.7701 62.2539C63.8144 62.2531 63.9419 61.983 64.0545 61.652C64.1664 61.3209 64.383 60.9755 64.5359 60.8849C64.6888 60.7943 64.8138 60.5946 64.8138 60.4396C64.8138 60.2855 64.9998 59.9249 65.2269 59.6379C65.454 59.3517 65.6706 58.9022 65.7084 58.6389C65.75 58.3519 65.8801 58.1021 66.0343 58.0132C66.1755 57.9328 66.3675 57.6594 66.4599 57.4062C66.5522 57.1531 66.7526 56.8195 66.9042 56.6637C67.0558 56.5088 67.1801 56.3005 67.1801 56.2006C67.1801 56.1007 67.3636 55.7511 67.5874 55.4235C67.8119 55.095 68.0279 54.6353 68.0676 54.3999C68.1073 54.1654 68.2433 53.8513 68.3695 53.7023C68.8256 53.1656 68.6876 40.7035 68.2257 40.7035C68.171 40.7035 68.1261 40.5985 68.1261 40.4715C68.1261 40.3436 67.7 39.6206 67.1795 38.8655C66.659 38.1103 66.2334 37.4288 66.2334 37.3526C66.2334 37.2755 66.1001 37.1333 65.9374 37.0368C65.7747 36.9403 65.642 36.7938 65.642 36.71C65.642 36.627 65.4293 36.285 65.169 35.9497C64.9087 35.6145 64.6953 35.2631 64.6953 35.17C64.6953 35.0769 64.5613 34.9338 64.3973 34.8525C64.234 34.7721 64.0492 34.5334 63.9881 34.3226C63.8489 33.8476 63.7278 33.8154 61.6744 33.7138C60.5124 33.6563 59.9021 33.5589 59.6425 33.3904C59.0276 32.9917 56.8454 32.7335 56.3555 33.0018ZM80.3431 32.9849C79.4316 33.1424 78.9241 34.1338 79.1538 35.3097C79.3164 36.1453 79.6886 36.3934 80.7804 36.3934C81.5644 36.3934 81.6255 36.4179 81.7557 36.7896C81.8324 37.008 82.0354 37.2806 82.2072 37.3966L82.5202 37.6066L82.6015 44.1195C82.6457 47.7015 82.7362 52.5365 82.8012 54.8647C82.9515 60.233 82.9594 60.1687 82.1558 60.4726C81.4004 60.7579 81.159 61.0788 81.1194 61.8526C81.068 62.8457 81.2807 62.9566 83.4649 63.0751C88.5665 63.3503 89.0187 63.2131 88.6335 61.5047C88.4416 60.6521 88.3037 60.4946 87.601 60.3228C86.8944 60.1501 86.8528 59.88 86.802 55.1136C86.763 51.4672 86.7805 50.9567 86.9451 50.8204C87.2386 50.5783 88.1742 50.8289 88.5171 51.2429C88.8541 51.6493 88.9946 51.717 89.7949 51.8575C90.333 51.9532 90.3493 51.9718 90.4293 52.5882C90.4749 52.9361 90.6297 53.3747 90.7748 53.5635C90.9309 53.7666 91.0936 54.267 91.1756 54.7978C91.251 55.288 91.4059 55.8595 91.5198 56.0669C91.9101 56.7806 92.0188 57.0972 92.0208 57.5298C92.0227 58.0234 92.1951 58.5161 92.5003 58.8979C92.6148 59.041 92.7449 59.4338 92.7885 59.7691C92.903 60.6538 93.1873 60.9298 93.851 60.8003C94.1464 60.7427 94.3884 60.6318 94.3884 60.5548C94.3884 60.3744 95.0215 59.946 95.2993 59.9393C95.622 59.9308 96.1126 59.3153 96.2642 58.7286C96.4438 58.0336 96.4496 58.0674 96.0501 57.4147C95.8406 57.071 95.6695 56.5664 95.6214 56.1507C95.5778 55.7697 95.4216 55.2728 95.2752 55.0459C95.1282 54.8198 94.9245 54.2069 94.8217 53.6854C94.7098 53.1164 94.5147 52.5805 94.3344 52.346C94.1685 52.1301 94.0319 51.7949 94.0293 51.601C94.0247 51.1633 93.9284 51.0033 92.9687 49.8519C92.0292 48.7242 91.9492 48.091 92.6942 47.6854C92.9245 47.5601 93.1379 47.3341 93.1685 47.1817C93.1991 47.0302 93.3923 46.8092 93.5992 46.6907C93.8055 46.5721 94.0436 46.2852 94.1282 46.0523C94.2134 45.8195 94.3279 45.629 94.3832 45.629C94.6246 45.629 94.7599 44.4277 94.8263 41.6914C94.905 38.4159 94.8647 37.9977 94.4444 37.7488C94.283 37.6531 94.1516 37.4804 94.1516 37.3636C94.1516 37.2476 93.9655 37.0097 93.7378 36.8344C93.5101 36.66 93.3233 36.4171 93.3233 36.296C93.3233 36.1741 93.1373 35.932 92.9095 35.7576C92.6818 35.5823 92.4957 35.3757 92.4957 35.2987C92.4957 35.2208 92.3298 35.0261 92.1275 34.8661C91.9251 34.7061 91.6974 34.4131 91.6219 34.2159C91.5458 34.0178 91.3786 33.8315 91.2504 33.801C91.1216 33.7714 90.8672 33.5631 90.6837 33.338L90.3506 32.9299H87.031C83.7199 32.9299 83.7108 32.9307 83.5345 33.2761C83.3146 33.7062 82.9541 33.7215 82.6958 33.3109C82.4694 32.9519 81.3939 32.8029 80.3431 32.9849ZM110.989 33.0772C109.96 33.6597 110.176 35.1734 111.322 35.4138C111.585 35.4689 111.911 35.7042 112.161 36.0192L112.569 36.5347L112.594 38.2584L112.65 41.9861C112.667 43.1062 112.693 44.2506 112.724 45.3209C112.78 47.2453 112.854 48.9302 112.925 49.8045C113.03 51.1057 113.151 53.1757 113.192 54.4033L113.362 55.5503L113.403 55.8273L113.402 57.9654L113.401 58.8516L113.401 59.1748C113.402 59.0838 113.402 58.9755 113.401 58.8516C113.4 58.4165 113.394 57.7898 113.384 57.0503C113.378 56.5879 113.371 56.0815 113.362 55.5503C113.313 52.447 113.23 48.4985 113.189 47.5534C113.125 46.1141 113.005 43.0274 112.922 40.6941C112.757 36.0192 112.676 35.5908 111.918 35.3834C110.666 35.0413 110.347 33.818 111.377 33.3083C112.045 32.9781 117.186 33.1271 117.442 33.4836C117.997 34.2599 117.824 35.0853 117.029 35.4494C116.776 35.5654 116.423 35.838 116.244 36.0556L115.919 36.4509V37.95V39.449V42.447V48.4432C115.919 49.1092 115.919 49.7405 115.918 50.3389C115.918 50.3571 115.918 50.3754 115.918 50.3936C115.918 51.3193 115.918 52.1659 115.918 52.9403C115.92 56.8001 115.933 58.8662 116.013 59.9928C116.018 60.0667 116.024 60.1365 116.03 60.2026C116.138 61.4255 116.351 61.3452 116.768 61.4911C117.369 61.7019 117.611 62.0422 117.516 62.5451C117.366 63.3401 117.245 63.3875 115.84 63.1962C115.135 63.1005 114.079 63.0218 113.493 63.0218C111.611 63.0209 111.032 62.6349 111.423 61.6384C111.707 60.9129 111.772 60.8578 112.595 60.6428C113.382 60.4379 113.414 60.3439 113.403 58.2511L113.402 57.9654L113.396 56.789L113.384 57.0503L113.321 58.4382C113.233 60.3651 113.303 60.2093 112.418 60.4185C111.501 60.6352 111.223 60.8883 111.066 61.6503C110.939 62.2615 111.12 63.0142 111.396 63.0269C112.852 63.0946 115.148 63.3604 115.321 63.4806C116.103 64.0259 117.273 63.9404 117.52 63.3198C117.882 62.4071 117.724 61.652 117.12 61.4107C116.967 61.3497 116.655 61.0466 116.426 60.7376L116.03 60.2026L116.01 60.1755L116.013 59.9928L116.083 56.2633C116.103 55.1837 116.121 53.2986 116.134 51.1337C116.147 48.9848 116.155 46.5602 116.155 44.3744V40.386V36.3976L116.539 36.1631C117.069 35.8405 117.696 35.3148 118.039 34.9067L118.326 34.5638L117.986 33.9009C117.799 33.5361 117.567 33.1508 117.469 33.045C117.204 32.7563 111.505 32.7851 110.989 33.0772ZM143.673 33.216C144.136 33.3312 144.571 33.4709 144.641 33.5267C144.711 33.5826 145.337 33.6986 146.032 33.7841C147.832 34.0059 148.078 34.2133 147.737 35.2208C147.495 35.9345 147.154 36.2333 146.581 36.2367C145.718 36.2418 145.351 36.7879 145.195 38.3025C145.153 38.7182 144.986 39.4335 144.824 39.8924C144.663 40.3513 144.461 41.2013 144.377 41.7803C144.292 42.3594 144.117 43.0638 143.988 43.3457C143.859 43.6285 143.686 44.3786 143.605 45.0135C143.523 45.6485 143.356 46.3825 143.234 46.645C143.111 46.9074 142.935 47.6346 142.842 48.2611C142.748 48.8876 142.539 49.7816 142.375 50.2473C142.213 50.7129 142.042 51.4402 141.998 51.8635C141.953 52.2868 141.796 52.9514 141.648 53.3416C141.5 53.7311 141.314 54.554 141.234 55.1703C141.154 55.7875 140.992 56.5071 140.872 56.7713C140.753 57.0346 140.577 57.7457 140.481 58.3519C140.385 58.9572 140.176 59.8224 140.018 60.2754C139.859 60.7283 139.693 61.4107 139.648 61.7917C139.504 63.0252 139.398 63.1047 137.954 63.0683C136.921 63.0429 136.66 62.9879 136.49 62.761C136.151 62.3064 135.572 60.6767 135.488 59.9393C135.445 59.5608 135.289 58.975 135.142 58.6363C134.994 58.2977 134.806 57.6043 134.723 57.0964C134.641 56.5884 134.47 55.9467 134.344 55.6707C134.218 55.3938 134.041 54.714 133.952 54.1586C133.863 53.6032 133.68 52.9166 133.544 52.633C133.41 52.3486 133.226 51.662 133.137 51.1066C133.048 50.5521 132.869 49.8714 132.74 49.5954C132.61 49.3185 132.44 48.6768 132.362 48.1689C132.283 47.6609 132.111 47.0132 131.978 46.7296C131.845 46.446 131.663 45.7594 131.574 45.204C131.484 44.6487 131.307 43.9748 131.179 43.7064C131.052 43.4388 130.863 42.7404 130.758 42.1537C130.654 41.5678 130.472 40.8804 130.354 40.6264C130.235 40.3724 130.071 39.7493 129.989 39.2414C129.905 38.7334 129.721 38.04 129.576 37.7014C129.432 37.3627 129.281 36.8471 129.239 36.5551C129.123 35.7355 128.86 35.3156 128.462 35.3156C128.265 35.3156 127.974 35.1539 127.784 34.9397L127.452 34.5638L127.689 33.9805C128.004 33.2042 128.393 33.1271 131.663 33.1889C134.434 33.2414 134.531 33.2711 134.671 34.1016C134.775 34.7137 134.593 34.9609 133.827 35.2504C133.479 35.3825 133.164 35.5527 133.129 35.6289C133.023 35.8515 133.425 38.5548 133.688 39.3946C133.822 39.8179 134.023 40.7881 134.138 41.5501C134.252 42.312 134.44 43.1739 134.556 43.4651C134.673 43.7563 134.833 44.5225 134.912 45.1676C134.991 45.8127 135.175 46.6788 135.319 47.0911C135.464 47.5043 135.647 48.3661 135.727 49.0062C135.807 49.6462 135.979 50.4471 136.11 50.7857C136.242 51.1244 136.414 51.9557 136.494 52.633C136.573 53.3103 136.743 54.1315 136.871 54.4583C136.999 54.7851 137.176 55.5818 137.264 56.2286C137.461 57.6695 137.572 58.0302 138.018 58.6931L138.367 59.212L138.494 58.6931C138.564 58.4078 138.656 57.7237 138.699 57.1734C138.742 56.6231 138.899 55.7579 139.049 55.2499C139.198 54.7419 139.384 53.7023 139.463 52.9403C139.541 52.1784 139.71 51.2505 139.839 50.8772C139.968 50.5038 140.143 49.5692 140.228 48.7987C140.386 47.3603 140.43 47.1343 140.716 46.2936C140.807 46.0244 140.957 45.1236 141.049 44.2922C141.14 43.4617 141.319 42.4695 141.448 42.0885C141.577 41.7075 141.745 40.7729 141.82 40.0109C141.897 39.2456 142.091 38.2288 142.254 37.7403C142.68 36.4611 142.621 35.4596 142.111 35.2885C141.314 35.021 140.807 33.7773 141.258 33.1915C141.447 32.9451 142.629 32.957 143.673 33.216ZM162.586 33.3159C162.369 33.6283 162.068 34.6172 162.06 35.0464C162.057 35.1946 162.007 35.3156 161.95 35.3156C161.74 35.3156 161.487 36.3434 161.405 37.5236C161.348 38.3592 161.258 38.8147 161.114 39.0018C160.816 39.3895 160.635 40.1684 160.633 41.0726C160.632 41.5043 160.565 42.0047 160.485 42.1842C160.405 42.3637 160.25 42.7141 160.141 42.9622C160.032 43.2111 159.883 43.9841 159.809 44.6808C159.717 45.5596 159.587 46.1167 159.386 46.5019C159.227 46.8075 159.097 47.2808 159.097 47.5534C159.097 48.3703 158.869 49.697 158.7 49.8621C158.477 50.0805 158.301 50.9237 158.224 52.1513C158.181 52.8184 158.092 53.2731 157.982 53.3823C157.729 53.6329 157.563 54.3051 157.44 55.5725C157.367 56.309 157.237 56.8627 157.049 57.2225C156.858 57.5891 156.745 58.0784 156.697 58.7405C156.594 60.167 156.575 60.2009 155.747 60.3905C154.781 60.6115 154.434 60.9544 154.389 61.7349C154.322 62.8982 154.562 63.0226 157.161 63.1733C158.691 63.2622 159.556 63.3799 159.912 63.5484C160.953 64.0411 162.267 62.6569 161.522 61.8518C161.327 61.641 161.034 61.3108 160.871 61.1177C160.708 60.9247 160.39 60.675 160.162 60.5624C159.544 60.2559 159.518 60.1806 159.784 59.4559C160.061 58.699 160.279 57.2962 160.282 56.2607C160.285 54.8715 160.228 54.9223 161.916 54.813C163.402 54.7174 163.802 54.6302 164.716 54.2026C164.977 54.0807 165.735 53.9402 166.403 53.8911L167.616 53.7997L167.972 54.2534C168.418 54.8198 168.561 55.3007 168.561 56.2337C168.561 56.7086 168.664 57.2327 168.853 57.7186C169.467 59.2984 169.405 60.4684 168.698 60.6149C168.348 60.6877 168.106 60.8976 167.67 61.5047L167.098 62.2996L167.445 62.6603C167.936 63.1725 168.165 63.2004 171.375 63.1471C174.587 63.0946 174.471 63.1386 174.474 61.9737C174.477 60.8841 174.307 60.6741 173.153 60.3431C172.964 60.2889 172.801 60.1103 172.751 59.9054C172.705 59.7149 172.572 59.4508 172.454 59.3179C172.305 59.1485 172.203 58.688 172.117 57.788C172.026 56.8483 171.912 56.3488 171.697 55.945C171.491 55.5589 171.378 55.0874 171.325 54.3957C171.248 53.3975 171.014 52.556 170.813 52.556C170.753 52.556 170.671 52.2267 170.63 51.8245C170.465 50.1948 170.313 49.4743 170.093 49.2745C169.923 49.1188 169.842 48.77 169.762 47.8387C169.658 46.628 169.482 45.9372 169.276 45.9372C169.151 45.9372 168.916 44.5885 168.916 43.8732C168.916 43.5777 168.786 43.1146 168.608 42.7726C168.411 42.3941 168.261 41.8252 168.192 41.1911C168.037 39.7612 167.969 39.4894 167.715 39.2583C167.557 39.1135 167.47 38.8011 167.427 38.2229C167.314 36.7041 167.251 36.3967 166.973 36.0073C166.803 35.7677 166.67 35.3385 166.623 34.8779C166.53 33.9712 166.36 33.8366 165.15 33.7096C164.674 33.6588 164.141 33.525 163.967 33.4116C163.397 33.0374 162.807 32.9976 162.586 33.3159ZM90.7045 33.7621C91.2693 34.1761 92.0455 35.0667 93.7716 37.2831L94.7645 38.5573L94.6851 40.7466C94.5635 44.1085 94.1373 46.3901 93.6298 46.402C93.5589 46.4028 93.2882 46.65 93.0279 46.9506C92.7677 47.2503 92.4124 47.594 92.2394 47.7142C91.6479 48.1231 91.6785 48.7572 92.3259 49.515C93.3812 50.7519 93.7944 51.4029 93.9792 52.1208C94.0813 52.5162 94.2375 52.9183 94.326 53.014C94.4151 53.1105 94.5986 53.6659 94.7352 54.2501C94.8712 54.8334 95.0365 55.354 95.1015 55.4065C95.2531 55.5284 95.5713 56.5139 95.5713 56.8635C95.5713 57.01 95.6956 57.3698 95.8478 57.661C96.1211 58.1851 96.1217 58.1978 95.9096 58.7125C95.5927 59.4821 95.4873 59.5769 94.3884 60.084L93.3825 60.548L93.1802 60.2076C93.0689 60.0205 92.9421 59.6624 92.8991 59.4118C92.8555 59.1604 92.6981 58.7108 92.5478 58.4111C92.3981 58.1114 92.1951 57.4612 92.0982 56.9668C92.0006 56.4724 91.836 55.9458 91.7332 55.7977C91.6297 55.6495 91.4651 55.1195 91.3662 54.6192C91.268 54.1197 91.0858 53.5287 90.9622 53.3078C90.8386 53.086 90.6603 52.6644 90.5659 52.3706C90.4221 51.9236 90.3005 51.8025 89.8184 51.6298C89.5015 51.5155 89.1052 51.292 88.9374 51.1337C88.4396 50.6613 87.1163 50.3294 86.6751 50.5673L86.3114 50.7637L86.3973 54.9062C86.5014 59.9384 86.5509 60.1746 87.5704 60.537C88.2523 60.7791 88.4735 61.1093 88.4735 61.8873C88.4735 62.8533 88.4195 62.8694 85.124 62.8694C81.8897 62.8694 81.2814 62.7348 81.444 62.0549C81.7062 60.9594 81.7296 60.9273 82.5481 60.5624C82.8357 60.4337 83.1259 60.2127 83.1936 60.0705C83.3126 59.819 83.1754 53.0275 82.9119 46.0904C82.8553 44.6089 82.8058 42.2883 82.8019 40.9329C82.7915 37.2112 82.433 36.3747 80.7576 36.1622C79.563 36.0098 79.0562 35.198 79.4934 34.1363C79.82 33.3405 81.6672 32.9705 82.4401 33.5454C82.8253 33.8315 83.5553 33.8374 83.7356 33.5547C84.1064 32.9731 89.8613 33.1449 90.7045 33.7621ZM194.29 33.3481C194.095 33.4362 193.616 33.564 193.226 33.6317C193.091 33.6552 193.018 33.6735 193.008 33.6866C192.983 33.7204 193.375 33.7203 194.196 33.6867C196.039 33.6122 196.676 33.79 197.108 34.5003C197.398 34.9753 197.759 34.9457 198.384 34.3954C199.109 33.7553 199.069 33.7409 200.158 35.0464C200.593 35.5679 200.105 36.9564 199.039 38.2288C198.867 38.4337 198.726 38.6648 198.726 38.741C198.726 38.9806 197.691 40.2412 197.494 40.2412C197.391 40.2412 197.188 40.0854 197.043 39.8949C196.898 39.7045 196.672 39.4776 196.54 39.3904C196.409 39.3032 196.232 39.0432 196.147 38.813C196.062 38.5827 195.944 38.3947 195.885 38.3947C195.826 38.3947 195.652 38.1535 195.498 37.8588C195.043 36.9885 194.373 36.4763 193.939 36.6677C193.318 36.942 192.432 37.1401 191.397 37.2366C190.344 37.3339 190.049 37.5134 189.376 38.4642C189.216 38.6911 188.806 39.2354 188.465 39.6731C187.768 40.5671 187.704 40.9236 188.122 41.5763C188.275 41.8159 188.464 42.2638 188.541 42.5728C188.618 42.8809 188.809 43.3262 188.965 43.5625C189.12 43.7987 189.282 44.1686 189.324 44.3862C189.445 45.0127 189.591 45.1414 190.306 45.2497C190.675 45.3065 191.244 45.5097 191.569 45.7018C191.895 45.894 192.614 46.1404 193.167 46.2487C193.72 46.3571 194.364 46.5755 194.598 46.7339C194.833 46.8922 195.486 47.1191 196.049 47.2376C197.469 47.5373 197.847 47.8852 199.244 50.1855L199.659 50.8687L199.702 50.9398L199.589 51.2482L199.311 52V54C199.31 54.0418 199.309 54.0832 199.307 54.1244C199.161 58.9745 199.237 59.5602 198.253 59.8868C197.987 60.0172 197.795 60.1425 197.596 60.3346C197.397 60.5268 196.959 60.791 196.623 60.9205C196.287 61.0509 195.905 61.2862 195.775 61.4445C195.644 61.6029 195.27 61.8213 194.944 61.9296C194.617 62.0389 194.32 62.1913 194.283 62.27C193.817 63.2504 191.247 63.3376 189.707 62.4249C188.217 61.5419 186.527 61.5411 186.18 62.4241L185.946 63.0226L185.15 63.0209C183.78 63.0167 183.432 62.5037 183.974 61.2862C184.132 60.929 184.353 60.2745 184.464 59.8309C184.576 59.3873 184.716 58.9851 184.776 58.9369C184.836 58.8886 185.025 58.4645 185.196 57.9946L185.507 57.1395L186.172 57.2259C187.245 57.3656 188.383 57.7228 188.808 58.0556C189.025 58.2249 189.548 58.4492 189.969 58.5525C190.389 58.6567 190.986 58.9081 191.296 59.1121C192.007 59.5812 192.546 59.5837 193.072 59.1189C193.299 58.9191 193.772 58.6694 194.124 58.5635C194.476 58.4577 194.95 58.2139 195.178 58.0217C195.406 57.8295 195.752 57.634 195.947 57.5882C197.081 57.3199 197.218 56.7179 196.663 54.4372C196.504 53.7836 196.313 52.7465 196.238 52.1327C196.076 50.7959 196.176 50.8899 194.627 50.6249C193.936 50.5072 193.048 50.2651 192.651 50.0864C192.255 49.9078 191.37 49.6665 190.685 49.5497C189.339 49.3211 189.131 49.4134 188.672 49.101C188.666 49.097 188.659 49.0927 188.653 49.0883C188.477 48.97 188.091 48.7089 187.902 48.7073C187.624 48.6978 187.396 48.7038 187.206 48.709C186.632 48.7246 186.408 48.7335 186.18 48.2897C186.151 48.2328 186.129 48.1603 186.113 48.0765C186.032 47.6701 186.075 46.9958 186.012 46.5197C185.928 45.8957 185.748 45.0643 185.611 44.6724C185.474 44.2804 185.301 43.4515 185.228 42.8318C185.154 42.2113 184.967 41.3139 184.813 40.8381C184.487 39.8374 184.464 39.5385 184.702 39.4191C184.796 39.3726 184.963 39.105 185.072 38.8257C185.181 38.5463 185.453 38.0747 185.675 37.7784C186.561 36.5991 186.66 36.4543 186.66 36.3375C186.66 36.2706 186.807 36.0175 186.986 35.7753C187.165 35.5332 187.442 35.1488 187.604 34.9211C188.18 34.1075 188.311 34.0626 190.472 33.9348L192.516 33.8146L190.251 33.8341L187.986 33.8535L187.324 34.7772C186.96 35.2851 186.662 35.744 186.661 35.7974C186.66 35.8498 186.448 36.1876 186.187 36.5474C185.927 36.9064 185.714 37.2916 185.714 37.4025C185.714 37.5134 185.602 37.6497 185.466 37.7065C185.33 37.7623 185.143 38.0442 185.051 38.3321C184.958 38.6208 184.831 38.8562 184.768 38.8562C184.266 38.8562 184.201 40.7356 184.682 41.3613C184.854 41.5856 184.949 42.0106 185.031 42.9182C185.187 44.6681 185.204 44.7494 185.465 45.1143C185.62 45.331 185.739 45.8314 185.824 46.6213C186.017 48.4271 186.129 48.5947 187.273 48.775C187.643 48.8334 188.008 48.9799 188.085 49.101C188.29 49.4218 188.919 49.6039 190.416 49.7749C191.462 49.8942 191.816 49.9958 192.084 50.2541C192.359 50.519 192.694 50.6088 193.83 50.7231C195.869 50.9296 196.119 51.1489 196.123 52.7406C196.125 53.704 196.346 55.0357 196.557 55.3464C196.836 55.7596 196.826 57.1734 196.544 57.1734C196.022 57.1734 195.133 57.5611 194.753 57.9548C194.447 58.2706 194.186 58.4052 193.877 58.4052C193.609 58.4052 193.275 58.5474 193.027 58.7667C192.458 59.2688 192.007 59.3585 191.747 59.0207C191.488 58.6837 190.94 58.4602 190.091 58.3451C189.722 58.2952 189.385 58.158 189.312 58.0293C189.135 57.7135 188.657 57.4993 187.757 57.3334C187.336 57.2564 186.896 57.0811 186.781 56.9457C186.151 56.204 185.21 56.6409 185.05 57.7491C185.008 58.0386 184.899 58.3129 184.807 58.3595C184.568 58.4789 184.294 59.2349 184.294 59.7776C184.294 60.0823 184.176 60.399 183.951 60.6987C183.135 61.7849 183.366 62.8973 184.463 63.1725C184.858 63.2715 185.284 63.379 185.409 63.4112C185.738 63.4959 186.243 63.0582 186.386 62.5646C186.574 61.9178 188.63 61.8695 189.116 62.502C189.385 62.8525 189.693 62.9676 190.683 63.0895C191.171 63.1496 191.676 63.2876 191.806 63.3968C192.119 63.6593 193.955 63.1031 194.386 62.6154C194.547 62.4334 194.983 62.1701 195.354 62.0296C195.726 61.889 196.16 61.6046 196.319 61.398C196.478 61.1914 196.736 61.0221 196.893 61.0221C197.265 61.0221 197.801 60.7088 197.987 60.382C198.069 60.2398 198.308 60.0747 198.52 60.0172C199.446 59.7623 199.315 57.9712 199.307 54.1244C199.306 53.6896 199.307 53.2286 199.311 52.7406L199.589 51.2482L199.659 50.8687L199.732 50.475L199.246 49.7063C198.979 49.2838 198.728 48.8174 198.688 48.6692C198.648 48.521 198.567 48.4 198.508 48.4C198.448 48.4 198.194 48.1325 197.942 47.8065C197.508 47.2427 197.435 47.2071 196.515 47.1038C195.875 47.0319 195.452 46.9023 195.273 46.7228C194.852 46.3029 194.608 46.2166 193.482 46.0862C192.677 45.9939 192.378 45.8932 192.179 45.651C191.968 45.3937 190.322 44.8595 189.739 44.8595C189.693 44.8595 189.59 44.5775 189.511 44.2321C189.431 43.8876 189.21 43.3923 189.019 43.1315C188.812 42.8496 188.672 42.4923 188.672 42.2477C188.672 42.0081 188.523 41.6195 188.315 41.3172L187.959 40.7974L188.315 40.3741C188.511 40.1413 188.672 39.8763 188.672 39.7849C188.672 39.6934 188.798 39.5436 188.954 39.4513C189.109 39.359 189.294 39.122 189.363 38.9239C189.432 38.7249 189.651 38.454 189.849 38.3211C190.047 38.1873 190.209 37.9841 190.209 37.8682C190.209 37.5583 190.48 37.4719 191.491 37.4609C191.99 37.455 192.824 37.3678 193.344 37.2662C194.413 37.0571 195.114 37.2747 195.249 37.8555C195.288 38.0248 195.488 38.3837 195.693 38.6521C196.169 39.2769 196.303 39.4564 196.676 39.9635C197.209 40.6916 198.025 40.6518 198.178 39.8916C198.21 39.7324 198.343 39.5665 198.473 39.5224C198.604 39.4776 198.795 39.21 198.898 38.9273C199.001 38.6445 199.182 38.3736 199.299 38.3253C199.416 38.2771 199.601 37.996 199.709 37.7005C199.817 37.4051 199.98 37.1629 200.071 37.1629C200.453 37.1629 200.732 35.0295 200.369 34.8745C200.279 34.8364 200.042 34.5732 199.842 34.2904C199.387 33.6461 198.74 33.5852 198.122 34.1295C197.425 34.7433 197.432 34.7416 197.312 34.3319C197.233 34.0635 197.058 33.8967 196.735 33.7833C196.479 33.6935 196.204 33.5166 196.123 33.3904C195.951 33.1212 194.849 33.095 194.29 33.3481ZM58.1896 33.4734C58.4173 33.5606 59.6997 33.7265 61.0407 33.8434L63.478 34.0559L64.1163 34.9414C64.4676 35.4282 64.8691 35.9785 65.0096 36.1648C65.249 36.4831 65.7585 37.234 66.8366 38.8562C67.0897 39.2371 67.4475 39.7569 67.6323 40.0109C68.1626 40.7415 68.2283 41.517 68.2673 47.5534C68.307 53.5914 68.2777 53.9089 67.5998 54.8647C67.4495 55.0763 67.2595 55.4226 67.1769 55.6343C67.0298 56.0135 66.5783 56.7721 65.9966 57.617C65.834 57.8532 65.6088 58.3011 65.4956 58.6109C65.3831 58.9208 65.2464 59.1748 65.1924 59.1748C65.1384 59.1748 64.9803 59.4381 64.8411 59.7598C64.7018 60.0823 64.426 60.5666 64.2282 60.8358C64.0297 61.1059 63.8658 61.4141 63.8645 61.5207C63.8625 61.6274 63.6101 61.9347 63.3023 62.2048L62.7434 62.6941L59.9639 62.8025L57.1837 62.9109L56.6814 62.364C56.1883 61.8264 52.3651 56.8669 51.5941 55.7629L51.1998 55.1983L51.0808 51.6061C50.9448 47.5085 51.056 45.4419 51.5056 43.7047C51.6592 43.1121 51.8459 42.0038 51.9207 41.2419C52.0444 39.9788 52.4191 38.1712 52.8225 36.8929C52.9234 36.5737 53.2083 36.2029 53.6085 35.8693C53.954 35.5823 54.3073 35.2361 54.3938 35.1006C54.4803 34.9651 54.6033 34.8542 54.6677 34.8542C54.7328 34.8542 54.9521 34.6756 55.1564 34.458C56.2299 33.3134 57.0653 33.0416 58.1896 33.4734ZM164.75 33.8374C166.221 34.0635 166.368 34.1752 166.491 35.1615C166.527 35.4579 166.688 36.0471 166.848 36.4704C167.009 36.8937 167.2 37.7251 167.273 38.3177C167.346 38.9103 167.512 39.6257 167.644 39.9076C167.775 40.1896 167.951 40.8939 168.037 41.4739C168.121 42.053 168.325 42.908 168.489 43.3754C168.653 43.8418 168.822 44.5919 168.865 45.0415C168.908 45.4919 169.065 46.1505 169.213 46.5061C169.362 46.8608 169.55 47.6575 169.631 48.2764C169.713 48.8944 169.884 49.6309 170.013 49.9129C170.143 50.1948 170.317 50.8983 170.402 51.4766C170.486 52.0539 170.67 52.8531 170.81 53.2511C170.949 53.6498 171.118 54.3669 171.186 54.8435C171.253 55.321 171.437 56.0923 171.594 56.5579C171.752 57.0235 171.953 57.9133 172.043 58.5347C172.231 59.8512 172.607 60.4955 173.284 60.658C174.22 60.8841 174.716 62.1193 174.122 62.7449C173.656 63.2351 168.342 63.1615 167.893 62.6577C167.459 62.1726 167.682 61.6892 168.61 61.0983C169.658 60.4312 169.716 59.7471 168.969 56.8745C168.81 56.2608 168.679 55.6249 168.679 55.4607C168.679 54.8732 168.34 54.1137 167.967 53.8623C167.512 53.5558 164.623 53.7556 163.415 54.1772C163.025 54.3136 162.199 54.493 161.581 54.5768C160.241 54.758 160.276 54.7199 160.095 56.1304C160.015 56.7467 159.838 57.7982 159.701 58.4679C159.321 60.3245 159.307 60.2728 160.457 61.2481C161.523 62.1523 161.583 62.2598 161.256 62.6967C160.911 63.1581 160.72 63.1776 158.025 63.0226C154.963 62.8465 154.72 62.7559 154.72 61.7917C154.72 61.1059 154.985 60.8324 155.848 60.631C156.565 60.4625 156.647 60.3541 156.802 59.3678C156.881 58.8641 157.063 58.1157 157.207 57.7051C157.351 57.2945 157.542 56.4089 157.632 55.7367C157.722 55.0653 157.895 54.3 158.017 54.0359C158.138 53.7726 158.303 53.0021 158.383 52.3249C158.462 51.6476 158.63 50.878 158.753 50.6139C158.877 50.3497 159.052 49.5844 159.142 48.913C159.232 48.2408 159.422 47.3603 159.563 46.9565C159.705 46.5518 159.896 45.6663 159.988 44.989C160.079 44.3117 160.255 43.5379 160.379 43.2695C160.502 43.0011 160.669 42.2273 160.751 41.5501C160.831 40.8728 161.006 40.0414 161.139 39.7028C161.272 39.3641 161.447 38.5929 161.528 37.9901C161.609 37.3864 161.759 36.6592 161.861 36.373C161.964 36.0877 162.157 35.3927 162.29 34.8271C162.607 33.4793 162.553 33.5013 164.75 33.8374ZM34.3523 33.9602C34.1571 34.0533 33.8747 34.254 33.725 34.4055C33.5435 34.5884 33.1304 34.7171 32.4921 34.789C30.8134 34.9795 30.0678 36.6076 31.0464 37.9443C31.4914 38.5522 33.0523 38.5819 33.6632 37.9943C34.0237 37.6472 34.9534 37.3966 35.2794 37.5591C35.4642 37.6523 35.4726 38.5234 35.4011 50.0712L35.3237 62.4842L35.5904 62.7923C35.8207 63.0582 36.025 63.0997 37.083 63.0997C38.9549 63.0997 38.7486 64.301 38.8989 52.556C38.9874 45.6688 39.0791 42.0851 39.1988 40.8575C39.2938 39.8839 39.3732 38.2559 39.3752 37.24L39.3778 35.3927L38.6393 34.6231L37.9008 33.8535L36.3042 33.8214C35.3633 33.8027 34.5611 33.8595 34.3523 33.9602ZM38.1559 34.5605C39.0908 35.3639 39.0603 35.1404 38.9204 40.1777C38.8521 42.6253 38.7655 48.3001 38.7284 52.7871C38.6504 62.0626 38.6373 62.3276 38.2359 62.6696C37.7369 63.0946 36.4252 63.1191 36.0289 62.7111L35.6939 62.3657L35.7804 50.0128L35.8663 37.6599L35.5859 37.4652C35.1708 37.1756 33.5897 37.3797 33.1694 37.7767C32.0796 38.8037 30.6345 37.6193 31.1739 36.1411C31.44 35.4113 31.7679 35.1649 32.7192 34.9821C33.1622 34.8966 33.7901 34.6866 34.1154 34.5147C35.6021 33.7308 37.2131 33.7494 38.1559 34.5605ZM7.61695 36.6465C7.39118 36.9394 7.40419 37.5812 7.72495 42.0115C8.04442 46.4223 7.9774 46.0439 8.48099 46.2589C8.72108 46.3613 9.08283 46.6077 9.28453 46.8067C9.89743 47.412 10.4524 47.3087 11.0679 46.4731C11.3497 46.0904 11.58 45.7247 11.58 45.6604C11.58 45.596 11.7348 45.3031 11.9242 45.0093C12.1128 44.7147 12.5188 44.067 12.8259 43.5684L13.3835 42.6617L13.2476 41.5873C13.1721 40.9964 13.0114 40.2268 12.8904 39.8772C12.7693 39.5275 12.6073 38.8443 12.5312 38.3583C12.364 37.2992 12.4063 37.3382 11.2534 37.1672C10.7446 37.0918 10.049 36.8869 9.70744 36.7117C8.93904 36.3172 7.89477 36.285 7.61695 36.6465ZM86.1468 36.6363C85.9263 37.3839 86.5261 45.4936 86.8423 46.0371C86.899 46.1345 87.0831 46.2597 87.2522 46.3148C87.4214 46.3698 87.7298 46.5849 87.9387 46.7914C88.4937 47.3426 89.6563 47.2537 89.6563 46.6602C89.6563 46.4384 90.834 44.492 91.6967 43.2882C92.1001 42.726 92.1366 41.7676 91.7878 40.8965C91.659 40.5748 91.4768 39.7451 91.3844 39.0526C91.1606 37.3873 90.9778 37.1722 89.7748 37.1604C89.547 37.1587 88.9881 36.9851 88.5327 36.7752C87.5366 36.3172 86.2626 36.2435 86.1468 36.6363ZM8.85901 36.6821C8.85901 37.0063 10.4661 37.4669 11.6027 37.4694C12.2683 37.4711 12.2807 37.4931 12.3926 38.8562C12.4531 39.5927 12.5644 40.0787 12.7446 40.3961C13.2183 41.23 13.2352 42.6947 12.7758 43.1324C12.5735 43.3254 12.4082 43.5701 12.4082 43.6759C12.4082 43.7817 12.2215 44.0967 11.9938 44.376C11.7661 44.6554 11.58 44.9577 11.58 45.0474C11.58 45.1363 11.3672 45.5105 11.107 45.8779C10.8467 46.2454 10.6333 46.6509 10.6333 46.7804C10.6333 47.1758 9.89092 47.0759 9.52201 46.6306C9.22532 46.2724 9.03794 46.1725 8.44651 46.0566C8.13095 45.9948 8.04637 45.3022 8.03791 42.704C8.03401 41.5611 7.9722 39.8992 7.90063 39.0102C7.73536 36.9741 7.82906 36.5474 8.44196 36.5474C8.67163 36.5474 8.85901 36.6084 8.85901 36.6821ZM87.5268 36.6761C87.5268 36.9369 88.1553 37.1646 89.508 37.3957C91.1619 37.6777 91.0324 37.5371 91.1932 39.2244C91.3291 40.651 91.5673 41.6271 91.7794 41.6271C92.0325 41.6271 91.9232 42.8293 91.6603 42.9377C91.5269 42.9935 91.3324 43.2695 91.2289 43.5523C91.1255 43.8342 90.9453 44.0984 90.8288 44.1381C90.7123 44.1779 90.5367 44.4599 90.4384 44.7655C90.3402 45.0711 90.184 45.3209 90.091 45.3209C89.9979 45.3209 89.8548 45.53 89.7735 45.7856C89.426 46.8786 88.7676 47.2342 88.2152 46.6297C88.0219 46.4181 87.7214 46.2039 87.5476 46.1548C87.3733 46.1057 87.1729 46.0422 87.1019 46.0151C87.0239 45.9846 86.9133 45.0271 86.8241 43.6209C86.7434 42.3315 86.6029 41.0032 86.5125 40.6696C86.3062 39.9085 86.1683 37.8419 86.2743 37.1045C86.3537 36.5534 86.3609 36.5474 86.9406 36.5474C87.2633 36.5474 87.5268 36.605 87.5268 36.6761ZM57.7752 38.2483C56.539 38.3067 55.4895 38.3634 55.4433 38.3744C55.3971 38.3854 55.3014 38.6885 55.2305 39.0483C55.1596 39.4081 54.995 40.0372 54.8642 40.4452C54.7334 40.8541 54.5506 41.7465 54.4582 42.4297C54.3658 43.1129 54.2084 43.8351 54.1082 44.034C53.5109 45.2201 53.4842 50.4098 54.0626 52.7668C54.1849 53.2654 54.2851 53.7599 54.2851 53.8648C54.2851 54.0714 55.0256 55.073 55.8206 55.9424C56.092 56.2387 56.5071 56.7408 56.7439 57.0583C56.9801 57.3757 57.2416 57.6356 57.3236 57.6356C57.4063 57.6356 57.5578 57.8016 57.66 58.0048C57.9235 58.5288 58.796 58.9691 60.0062 59.1892L61.0479 59.3788L61.3042 58.9834C61.4454 58.7659 61.6803 58.5102 61.8267 58.4145C61.9731 58.3189 62.0928 58.1682 62.0928 58.0793C62.0928 57.9218 62.5456 57.17 63.424 55.8713C63.668 55.5107 63.8677 55.1762 63.8677 55.1288C63.8677 55.0408 64.2828 54.4304 64.9679 53.5101L65.346 53.003L65.316 49.7393C65.2764 45.4987 65.1104 42.7599 64.8736 42.4525C64.776 42.3247 64.6953 42.1588 64.6953 42.0843C64.6953 41.9175 62.5873 39.1643 62.4597 39.1643C62.4103 39.1643 62.301 38.9967 62.2171 38.7927C62.0394 38.3626 61.3179 38.0713 60.5326 38.1145C60.2521 38.1298 59.0114 38.1899 57.7752 38.2483ZM164.242 38.4328C164.213 38.5387 164.135 38.9518 164.069 39.3506C164.003 39.7493 163.841 40.3445 163.709 40.6738C163.577 41.0023 163.396 41.7668 163.308 42.3721C163.219 42.9783 163.054 43.6573 162.941 43.8825C162.828 44.1077 162.66 44.7833 162.57 45.3835C162.479 45.9846 162.278 46.8219 162.122 47.2452C161.966 47.6685 161.784 48.4118 161.717 48.8969C161.65 49.3812 161.506 50.0221 161.397 50.3192C160.977 51.474 162.098 51.7322 164.007 50.9203C164.332 50.7823 165.13 50.5529 165.781 50.4115L166.964 50.1542L166.956 49.3922C166.951 48.941 166.837 48.3212 166.677 47.8709C166.527 47.4526 166.34 46.5865 166.26 45.9465C166.18 45.3065 166.005 44.4709 165.871 44.0899C165.737 43.7089 165.56 42.8428 165.476 42.1655C165.394 41.4883 165.202 40.612 165.051 40.2192C164.899 39.8255 164.775 39.354 164.775 39.1702C164.775 38.504 164.374 37.9494 164.242 38.4328ZM61.4968 38.493C61.7369 38.5556 61.9243 38.7275 62.0049 38.9586C62.0759 39.1601 62.2574 39.3658 62.4083 39.4149C62.5599 39.4649 62.7506 39.6858 62.8319 39.9076C62.9132 40.1286 63.1117 40.3944 63.2724 40.4986C63.4331 40.6036 63.5977 40.811 63.6381 40.96C63.6784 41.1098 63.8664 41.3443 64.0558 41.4806C64.2451 41.6169 64.4156 41.8616 64.4357 42.0242C64.4552 42.1867 64.5223 42.4585 64.5841 42.6278C65.2484 44.437 65.4149 53.0005 64.791 53.2578C64.6621 53.3112 64.504 53.5533 64.439 53.7954C64.3739 54.0384 64.2139 54.2805 64.0831 54.3347C63.953 54.3889 63.7714 54.6632 63.681 54.9451C63.5905 55.227 63.409 55.5022 63.2782 55.5564C63.1468 55.6106 63.0395 55.7325 63.0395 55.8273C63.0395 55.9221 62.8274 56.3259 62.569 56.7255C62.3101 57.1243 62.0355 57.6314 61.9588 57.8515C61.8813 58.0716 61.7492 58.2511 61.6647 58.2511C61.5801 58.2511 61.4155 58.3807 61.299 58.5381C60.8917 59.091 57.9417 58.4712 57.7771 57.7982C57.7348 57.6246 57.5689 57.4392 57.4082 57.3867C57.2475 57.3343 57.0367 57.0921 56.9398 56.8475C56.837 56.5892 56.6671 56.4038 56.5331 56.4038C56.3965 56.4038 56.2273 56.2159 56.1186 55.9424C56.0178 55.6884 55.8896 55.4802 55.8337 55.4802C55.4335 55.4802 54.5487 53.9791 54.4719 53.1715C54.4276 52.7058 54.2747 52.0133 54.1316 51.6323C53.7386 50.5859 53.7328 45.3894 54.1238 44.8332C54.4393 44.3854 54.5064 44.0975 54.6306 42.6523C54.7003 41.8481 54.8128 41.3443 55.0009 41.0015C55.1791 40.6747 55.2943 40.1887 55.3398 39.5665L55.4095 38.625L56.3555 38.5378C57.7608 38.4083 61.0609 38.3795 61.4968 38.493ZM164.642 39.7028C164.716 40.2107 164.893 40.8304 165.034 41.0802C165.226 41.4214 165.31 41.8557 165.369 42.8183C165.428 43.7851 165.511 44.2135 165.705 44.5564C165.977 45.0339 166.195 46.1979 166.195 47.1682C166.195 47.5144 166.304 47.9504 166.471 48.2713C166.798 48.8986 166.961 49.9213 166.75 50.0246C166.672 50.0627 166.01 50.1558 165.279 50.232C164.306 50.3328 163.841 50.4522 163.549 50.6765C162.709 51.3208 161.291 51.3106 161.64 50.6621C161.738 50.4809 161.818 50.1084 161.818 49.835C161.818 49.123 162.055 47.7836 162.181 47.7836C162.365 47.7836 162.606 46.8236 162.676 45.8068C162.722 45.1532 162.82 44.7206 162.973 44.4988C163.262 44.0797 163.324 43.8469 163.477 42.6024C163.55 42.003 163.719 41.368 163.892 41.0362C164.053 40.7288 164.184 40.3039 164.185 40.0905C164.191 38.4955 164.433 38.2889 164.642 39.7028ZM15.8638 42.4898C15.7876 45.3327 15.2893 46.4765 13.634 47.6033C13.0179 48.0232 13.1402 48.8292 13.9763 49.8545C14.8306 50.9026 15.6569 52.5518 15.8612 53.6151C15.936 54.0062 16.0921 54.499 16.2073 54.7106C16.3231 54.9223 16.5294 55.5369 16.6666 56.077C16.8033 56.6163 16.9926 57.1582 17.087 57.2801C17.7591 58.1555 17.2926 59.3069 15.9906 59.9833C14.8227 60.5912 14.3042 60.3228 14.0576 58.9834C13.9782 58.5542 13.7941 57.9734 13.6477 57.6932C13.502 57.413 13.3452 56.922 13.2996 56.6019C13.2541 56.2811 13.0634 55.6698 12.8767 55.2431C12.69 54.8156 12.5006 54.1688 12.4557 53.8047C12.4108 53.4407 12.2488 52.9488 12.0953 52.7118C11.9417 52.4747 11.8168 52.2063 11.8168 52.1158C11.8168 51.9058 11.5143 51.7001 10.9931 51.5544C10.768 51.491 10.4485 51.3106 10.2833 51.1523C10.118 50.9948 9.58382 50.7324 9.09584 50.569L8.20838 50.2727L8.00408 50.6062C7.66184 51.1642 7.7731 59.5854 8.12965 60.145C8.19992 60.2551 8.52784 60.4345 8.85901 60.5454C9.76665 60.8477 10.239 62.1032 9.63782 62.6154C9.23833 62.9557 3.49126 62.9905 3.15098 62.6552C2.54979 62.0609 2.96945 60.8942 3.87644 60.636C4.4103 60.4844 4.53701 60.3763 4.56157 58.9834C4.56788 58.6262 4.56746 58.1844 4.56546 57.6356L4.55896 55.7113L4.49986 57.3075L4.47633 57.943C4.4532 58.5662 4.43042 59.1335 4.41256 59.5421C4.39525 59.9383 4.38257 60.1853 4.37873 60.189C4.37027 60.1966 4.07228 60.2881 3.71573 60.3922C2.67927 60.6936 2.15225 61.9085 2.73132 62.662L3.0163 63.0336L6.32608 63.0666C9.98722 63.1039 10.2787 63.037 10.2787 62.1625C10.2787 61.4649 9.6619 60.4066 9.25525 60.4066C8.14592 60.4066 8.02099 59.8377 8.05873 54.9417L8.08996 50.7857L8.44261 50.7332C8.92082 50.663 9.68662 50.9737 10.0191 51.3741C10.1954 51.5866 10.509 51.7305 10.9053 51.783C11.3978 51.8474 11.5273 51.9236 11.5631 52.1708C11.5878 52.3401 11.7674 52.7676 11.9625 53.1215C12.1838 53.5228 12.3393 54.0274 12.3777 54.4668C12.4167 54.9163 12.5416 55.3159 12.7244 55.5716C12.8865 55.7994 13.0582 56.3014 13.1207 56.7315C13.241 57.5586 13.3718 57.9438 13.6562 58.3138C13.7583 58.4467 13.8845 58.9081 13.9366 59.3399C14.1018 60.7004 15.1416 61.3827 15.7232 60.5116C15.8846 60.2711 16.1702 60.0781 16.4637 60.0138C17.493 59.7877 17.9367 57.8676 17.1989 56.8322C17.0343 56.6011 16.8462 56.0711 16.774 55.6368C16.7037 55.2067 16.519 54.6598 16.3648 54.4211C16.2099 54.1823 16.0479 53.682 16.0037 53.3095C15.9165 52.5704 15.6549 51.7864 15.4949 51.7864C15.4396 51.7864 15.325 51.5612 15.2398 51.2861C15.0889 50.795 14.1324 49.4642 13.729 49.1831C13.3953 48.9511 13.5267 47.8107 13.9008 47.6888C14.0576 47.6372 14.2808 47.4391 14.3959 47.2486C14.5111 47.0581 14.7102 46.8558 14.8377 46.7999C15.5204 46.5009 15.8335 45.8972 15.9119 44.5587C15.9244 44.3447 15.931 44.1119 15.932 43.8586C15.9328 43.6866 15.931 43.5051 15.9269 43.3135C15.9061 42.3433 15.8781 41.9725 15.8638 42.4898ZM91.253 90.4257C89.8216 90.4985 87.7721 90.6365 86.6986 90.733C83.6308 91.009 78.412 91.1639 71.7463 91.1783C62.353 91.1995 50.0508 91.4823 47.0689 91.7464C45.605 91.8759 43.6941 92.0419 42.8216 92.1147C41.9491 92.1875 38.6217 92.3289 35.4278 92.4279C29.7685 92.6032 28.6689 92.7115 28.7639 93.0823C28.8889 93.5717 34.0939 93.7664 50.4997 93.8942C62.1722 93.9857 65.2868 94.0754 68.4807 94.4115C74.6683 95.0634 124.536 95.066 130.528 94.4149C133.703 94.0703 136.76 93.9814 148.627 93.8909C165.915 93.7588 170.098 93.592 170.098 93.0324C170.098 92.6438 169.809 92.6176 163.19 92.4152C157.589 92.2442 156.917 92.2044 151.821 91.7472C148.864 91.4814 136.367 91.1978 126.831 91.18C119.737 91.1673 115.232 91.0192 111.009 90.6602C107.63 90.3732 95.1874 90.2259 91.253 90.4257ZM105.863 90.8879C110.071 91.1224 118.17 91.329 126.861 91.423C136.234 91.5246 143.413 91.7328 147.977 92.0368C149.831 92.1595 152.732 92.3322 154.424 92.4186C165.247 92.9757 166.287 93.073 163.237 93.2415C159.988 93.421 150.396 93.6521 139.4 93.8155C133.674 93.9002 127.739 94.0339 126.21 94.1127C124.681 94.1914 121.86 94.3404 119.94 94.4445C115.129 94.7061 83.8325 94.707 79.0093 94.4454C77.09 94.3412 74.2955 94.1914 72.799 94.1127C71.3026 94.0331 65.3401 93.9002 59.5494 93.8164C45.6044 93.614 33.5982 93.2762 33.7407 93.0908C33.7953 93.0205 38.8917 92.7005 44.4072 92.4211C46.3591 92.3229 48.7547 92.1815 49.7307 92.1079C53.1927 91.8471 64.3134 91.5136 75.2239 91.3434C81.3074 91.2486 87.8287 91.1013 89.7156 91.0166C98.9409 90.6018 100.5 90.5891 105.863 90.8879Z" fill="#811D35"/>
<path d="M109.057 1.14731C113.254 1.23197 118.417 1.37335 120.532 1.46225C122.646 1.55114 125.841 1.68321 127.63 1.75517C129.419 1.82798 135.568 1.96175 141.293 2.05318C152.396 2.23012 162.894 2.50527 164.834 2.67036L166.018 2.77111L164.007 2.88371C162.9 2.94635 160.691 3.06573 159.097 3.15039C156.414 3.29262 152.219 3.53305 145.789 3.91234C141.996 4.13584 132.923 4.36443 121.065 4.53544C115.339 4.61756 109.323 4.75556 107.697 4.84192C100.614 5.21696 99.2767 5.25252 96.8133 5.12722C95.3819 5.05441 92.9063 4.92658 91.3122 4.84276C89.7182 4.75895 83.7564 4.6218 78.0633 4.53798C65.3388 4.35004 56.1707 4.12145 53.0431 3.91319C50.4939 3.74386 44.5894 3.40522 39.735 3.15039C38.0758 3.06319 35.8129 2.94297 34.7068 2.88286L32.6957 2.77365L33.9384 2.67036C35.958 2.50104 46.2595 2.23266 57.5975 2.05318C63.4207 1.9609 69.5159 1.82629 71.1425 1.75348C86.7435 1.05418 96.6351 0.896713 109.057 1.14731Z" fill="#811D35"/>
<path d="M38.1559 34.5605C39.0908 35.3639 39.0603 35.1404 38.9204 40.1777C38.8521 42.6253 38.7655 48.3001 38.7284 52.7871C38.6504 62.0626 38.6373 62.3276 38.2359 62.6696C37.7369 63.0946 36.4252 63.1191 36.0289 62.7111L35.6939 62.3657L35.7804 50.0128L35.8663 37.6599L35.5859 37.4652C35.1708 37.1756 33.5897 37.3797 33.1694 37.7767C32.0796 38.8037 30.6345 37.6193 31.1739 36.1411C31.44 35.4113 31.7679 35.1649 32.7192 34.9821C33.1622 34.8966 33.7901 34.6866 34.1154 34.5147C35.6021 33.7308 37.2131 33.7494 38.1559 34.5605Z" fill="#811D35"/>
<path fill-rule="evenodd" clip-rule="evenodd" d="M58.1896 33.4734C58.4173 33.5606 59.6997 33.7265 61.0407 33.8434L63.478 34.0559L64.1163 34.9414C64.4676 35.4282 64.8691 35.9785 65.0096 36.1648C65.249 36.4831 65.7585 37.234 66.8366 38.8562C67.0897 39.2371 67.4475 39.7569 67.6323 40.0109C68.1626 40.7415 68.2283 41.517 68.2673 47.5534C68.307 53.5914 68.2777 53.9089 67.5998 54.8647C67.4495 55.0763 67.2595 55.4226 67.1769 55.6343C67.0298 56.0135 66.5783 56.7721 65.9966 57.617C65.834 57.8532 65.6088 58.3011 65.4956 58.6109C65.3831 58.9208 65.2464 59.1748 65.1924 59.1748C65.1384 59.1748 64.9803 59.4381 64.8411 59.7598C64.7018 60.0823 64.426 60.5666 64.2282 60.8358C64.0297 61.1059 63.8658 61.4141 63.8645 61.5207C63.8625 61.6274 63.6101 61.9347 63.3023 62.2048L62.7434 62.6941L59.9639 62.8025L57.1837 62.9109L56.6814 62.364C56.1883 61.8264 52.3651 56.8669 51.5941 55.7629L51.1998 55.1983L51.0808 51.6061C50.9448 47.5085 51.056 45.4419 51.5056 43.7047C51.6592 43.1121 51.8459 42.0038 51.9207 41.2419C52.0444 39.9788 52.4191 38.1712 52.8225 36.8929C52.9234 36.5737 53.2083 36.2029 53.6085 35.8693C53.954 35.5823 54.3073 35.2361 54.3938 35.1006C54.4803 34.9651 54.6033 34.8542 54.6677 34.8542C54.7328 34.8542 54.9521 34.6756 55.1564 34.458C56.2299 33.3134 57.0653 33.0416 58.1896 33.4734ZM55.4433 38.3744C55.4895 38.3634 56.539 38.3067 57.7752 38.2483C59.0114 38.1899 60.2521 38.1298 60.5326 38.1145C61.3179 38.0713 62.0394 38.3626 62.2171 38.7927C62.301 38.9967 62.4103 39.1643 62.4597 39.1643C62.5873 39.1643 64.6953 41.9175 64.6953 42.0843C64.6953 42.1588 64.776 42.3247 64.8736 42.4525C65.1104 42.7599 65.2764 45.4987 65.316 49.7393L65.346 53.003L64.9679 53.5101C64.2828 54.4304 63.8677 55.0408 63.8677 55.1288C63.8677 55.1762 63.668 55.5107 63.424 55.8713C62.5456 57.17 62.0928 57.9218 62.0928 58.0793C62.0928 58.1682 61.9731 58.3189 61.8267 58.4145C61.6803 58.5102 61.4454 58.7659 61.3042 58.9834L61.0479 59.3788L60.0062 59.1892C58.796 58.9691 57.9235 58.5288 57.66 58.0048C57.5578 57.8016 57.4063 57.6356 57.3236 57.6356C57.2416 57.6356 56.9801 57.3757 56.7439 57.0583C56.5071 56.7408 56.092 56.2387 55.8206 55.9424C55.0256 55.073 54.2851 54.0714 54.2851 53.8648C54.2851 53.7599 54.1849 53.2654 54.0626 52.7668C53.4842 50.4098 53.5109 45.2201 54.1082 44.034C54.2084 43.8351 54.3658 43.1129 54.4582 42.4297C54.5506 41.7465 54.7334 40.8541 54.8642 40.4452C54.995 40.0372 55.1596 39.4081 55.2305 39.0483C55.3014 38.6885 55.3971 38.3854 55.4433 38.3744Z" fill="#811D35"/>
<path fill-rule="evenodd" clip-rule="evenodd" d="M90.7045 33.7621C91.2693 34.1761 92.0455 35.0667 93.7716 37.2831L94.7645 38.5573L94.6851 40.7466C94.5635 44.1085 94.1373 46.3901 93.6298 46.402C93.5589 46.4028 93.2882 46.65 93.0279 46.9506C92.7677 47.2503 92.4124 47.594 92.2394 47.7142C91.6479 48.1231 91.6785 48.7572 92.3259 49.515C93.3812 50.7519 93.7944 51.4029 93.9792 52.1208C94.0813 52.5162 94.2375 52.9183 94.326 53.014C94.4151 53.1105 94.5986 53.6659 94.7352 54.2501C94.8712 54.8334 95.0365 55.354 95.1015 55.4065C95.2531 55.5284 95.5713 56.5139 95.5713 56.8635C95.5713 57.01 95.6956 57.3698 95.8478 57.661C96.1211 58.1851 96.1217 58.1978 95.9096 58.7125C95.5927 59.4821 95.4873 59.5769 94.3884 60.084L93.3825 60.548L93.1802 60.2076C93.0689 60.0205 92.9421 59.6624 92.8991 59.4118C92.8555 59.1604 92.6981 58.7108 92.5478 58.4111C92.3981 58.1114 92.1951 57.4612 92.0982 56.9668C92.0006 56.4724 91.836 55.9458 91.7332 55.7977C91.6297 55.6495 91.4651 55.1195 91.3662 54.6192C91.268 54.1197 91.0858 53.5287 90.9622 53.3078C90.8386 53.086 90.6603 52.6644 90.5659 52.3706C90.4221 51.9236 90.3005 51.8025 89.8184 51.6298C89.5015 51.5155 89.1052 51.292 88.9374 51.1337C88.4396 50.6613 87.1163 50.3294 86.6751 50.5673L86.3114 50.7637L86.3973 54.9062C86.5014 59.9384 86.5509 60.1746 87.5704 60.537C88.2523 60.7791 88.4735 61.1093 88.4735 61.8873C88.4735 62.8533 88.4195 62.8694 85.124 62.8694C81.8897 62.8694 81.2814 62.7348 81.444 62.0549C81.7062 60.9594 81.7296 60.9273 82.5481 60.5624C82.8357 60.4337 83.1259 60.2127 83.1936 60.0705C83.3126 59.819 83.1754 53.0275 82.9119 46.0904C82.8553 44.6089 82.8058 42.2883 82.8019 40.9329C82.7915 37.2112 82.433 36.3747 80.7576 36.1622C79.563 36.0098 79.0562 35.198 79.4934 34.1363C79.82 33.3405 81.6672 32.9705 82.4401 33.5454C82.8253 33.8315 83.5553 33.8374 83.7356 33.5547C84.1064 32.9731 89.8613 33.1449 90.7045 33.7621ZM86.8423 46.0371C86.5261 45.4936 85.9263 37.3839 86.1468 36.6363C86.2626 36.2435 87.5366 36.3172 88.5327 36.7752C88.9881 36.9851 89.547 37.1587 89.7748 37.1604C90.9778 37.1722 91.1606 37.3873 91.3844 39.0526C91.4768 39.7451 91.659 40.5748 91.7878 40.8965C92.1366 41.7676 92.1001 42.726 91.6967 43.2882C90.834 44.492 89.6563 46.4384 89.6563 46.6602C89.6563 47.2537 88.4937 47.3426 87.9387 46.7914C87.7298 46.5849 87.4214 46.3698 87.2522 46.3148C87.0831 46.2597 86.899 46.1345 86.8423 46.0371Z" fill="#811D35"/>
<path d="M143.673 33.216C144.136 33.3312 144.571 33.4709 144.641 33.5267C144.711 33.5826 145.337 33.6986 146.032 33.7841C147.832 34.0059 148.078 34.2133 147.737 35.2208C147.495 35.9345 147.154 36.2333 146.581 36.2367C145.718 36.2418 145.351 36.7879 145.195 38.3025C145.153 38.7182 144.986 39.4335 144.824 39.8924C144.663 40.3513 144.461 41.2013 144.377 41.7803C144.292 42.3594 144.117 43.0638 143.988 43.3457C143.859 43.6285 143.686 44.3786 143.605 45.0135C143.523 45.6485 143.356 46.3825 143.234 46.645C143.111 46.9074 142.935 47.6346 142.842 48.2611C142.748 48.8876 142.539 49.7816 142.375 50.2473C142.213 50.7129 142.042 51.4402 141.998 51.8635C141.953 52.2868 141.796 52.9514 141.648 53.3416C141.5 53.7311 141.314 54.554 141.234 55.1703C141.154 55.7875 140.992 56.5071 140.872 56.7713C140.753 57.0346 140.577 57.7457 140.481 58.3519C140.385 58.9572 140.176 59.8224 140.018 60.2754C139.859 60.7283 139.693 61.4107 139.648 61.7917C139.504 63.0252 139.398 63.1047 137.954 63.0683C136.921 63.0429 136.66 62.9879 136.49 62.761C136.151 62.3064 135.572 60.6767 135.488 59.9393C135.445 59.5608 135.289 58.975 135.142 58.6363C134.994 58.2977 134.806 57.6043 134.723 57.0964C134.641 56.5884 134.47 55.9467 134.344 55.6707C134.218 55.3938 134.041 54.714 133.952 54.1586C133.863 53.6032 133.68 52.9166 133.544 52.633C133.41 52.3486 133.226 51.662 133.137 51.1066C133.048 50.5521 132.869 49.8714 132.74 49.5954C132.61 49.3185 132.44 48.6768 132.362 48.1689C132.283 47.6609 132.111 47.0132 131.978 46.7296C131.845 46.446 131.663 45.7594 131.574 45.204C131.484 44.6487 131.307 43.9748 131.179 43.7064C131.052 43.4388 130.863 42.7404 130.758 42.1537C130.654 41.5678 130.472 40.8804 130.354 40.6264C130.235 40.3724 130.071 39.7493 129.989 39.2414C129.905 38.7334 129.721 38.04 129.576 37.7014C129.432 37.3627 129.281 36.8471 129.239 36.5551C129.123 35.7355 128.86 35.3156 128.462 35.3156C128.265 35.3156 127.974 35.1539 127.784 34.9397L127.452 34.5638L127.689 33.9805C128.004 33.2042 128.393 33.1271 131.663 33.1889C134.434 33.2414 134.531 33.2711 134.671 34.1016C134.775 34.7137 134.593 34.9609 133.827 35.2504C133.479 35.3825 133.164 35.5527 133.129 35.6289C133.023 35.8515 133.425 38.5548 133.688 39.3946C133.822 39.8179 134.023 40.7881 134.138 41.5501C134.252 42.312 134.44 43.1739 134.556 43.4651C134.673 43.7563 134.833 44.5225 134.912 45.1676C134.991 45.8127 135.175 46.6788 135.319 47.0911C135.464 47.5043 135.647 48.3661 135.727 49.0062C135.807 49.6462 135.979 50.4471 136.11 50.7857C136.242 51.1244 136.414 51.9557 136.494 52.633C136.573 53.3103 136.743 54.1315 136.871 54.4583C136.999 54.7851 137.176 55.5818 137.264 56.2286C137.461 57.6695 137.572 58.0302 138.018 58.6931L138.367 59.212L138.494 58.6931C138.564 58.4078 138.656 57.7237 138.699 57.1734C138.742 56.6231 138.899 55.7579 139.049 55.2499C139.198 54.7419 139.384 53.7023 139.463 52.9403C139.541 52.1784 139.71 51.2505 139.839 50.8772C139.968 50.5038 140.143 49.5692 140.228 48.7987C140.386 47.3603 140.43 47.1343 140.716 46.2936C140.807 46.0244 140.957 45.1236 141.049 44.2922C141.14 43.4617 141.319 42.4695 141.448 42.0885C141.577 41.7075 141.745 40.7729 141.82 40.0109C141.897 39.2456 142.091 38.2288 142.254 37.7403C142.68 36.4611 142.621 35.4596 142.111 35.2885C141.314 35.021 140.807 33.7773 141.258 33.1915C141.447 32.9451 142.629 32.957 143.673 33.216Z" fill="#811D35"/>
<path fill-rule="evenodd" clip-rule="evenodd" d="M164.75 33.8374C166.221 34.0635 166.368 34.1752 166.491 35.1615C166.527 35.4579 166.688 36.0471 166.848 36.4704C167.009 36.8937 167.2 37.7251 167.273 38.3177C167.346 38.9103 167.512 39.6257 167.644 39.9076C167.775 40.1896 167.951 40.8939 168.037 41.4739C168.121 42.053 168.325 42.908 168.489 43.3754C168.653 43.8418 168.822 44.5919 168.865 45.0415C168.908 45.4919 169.065 46.1505 169.213 46.5061C169.362 46.8608 169.55 47.6575 169.631 48.2764C169.713 48.8944 169.884 49.6309 170.013 49.9129C170.143 50.1948 170.317 50.8983 170.402 51.4766C170.486 52.0539 170.67 52.8531 170.81 53.2511C170.949 53.6498 171.118 54.3669 171.186 54.8435C171.253 55.321 171.437 56.0923 171.594 56.5579C171.752 57.0235 171.953 57.9133 172.043 58.5347C172.231 59.8512 172.607 60.4955 173.284 60.658C174.22 60.8841 174.716 62.1193 174.122 62.7449C173.656 63.2351 168.342 63.1615 167.893 62.6577C167.459 62.1726 167.682 61.6892 168.61 61.0983C169.658 60.4312 169.716 59.7471 168.969 56.8745C168.81 56.2608 168.679 55.6249 168.679 55.4607C168.679 54.8732 168.34 54.1137 167.967 53.8623C167.512 53.5558 164.623 53.7556 163.415 54.1772C163.025 54.3136 162.199 54.493 161.581 54.5768C160.241 54.758 160.276 54.7199 160.095 56.1304C160.015 56.7467 159.838 57.7982 159.701 58.4679C159.321 60.3245 159.307 60.2728 160.457 61.2481C161.523 62.1523 161.583 62.2598 161.256 62.6967C160.911 63.1581 160.72 63.1776 158.025 63.0226C154.963 62.8465 154.72 62.7559 154.72 61.7917C154.72 61.1059 154.985 60.8324 155.848 60.631C156.565 60.4625 156.647 60.3541 156.802 59.3678C156.881 58.8641 157.063 58.1157 157.207 57.7051C157.351 57.2945 157.542 56.4089 157.632 55.7367C157.722 55.0653 157.895 54.3 158.017 54.0359C158.138 53.7726 158.303 53.0021 158.383 52.3249C158.462 51.6476 158.63 50.878 158.753 50.6139C158.877 50.3497 159.052 49.5844 159.142 48.913C159.232 48.2408 159.422 47.3603 159.563 46.9565C159.705 46.5518 159.896 45.6663 159.988 44.989C160.079 44.3117 160.255 43.5379 160.379 43.2695C160.502 43.0011 160.669 42.2273 160.751 41.5501C160.831 40.8728 161.006 40.0414 161.139 39.7028C161.272 39.3641 161.447 38.5929 161.528 37.9901C161.609 37.3864 161.759 36.6592 161.861 36.373C161.964 36.0877 162.157 35.3927 162.29 34.8271C162.607 33.4793 162.553 33.5013 164.75 33.8374ZM164.069 39.3506C164.135 38.9518 164.213 38.5387 164.242 38.4328C164.374 37.9494 164.775 38.504 164.775 39.1702C164.775 39.354 164.899 39.8255 165.051 40.2192C165.202 40.612 165.394 41.4883 165.476 42.1655C165.56 42.8428 165.737 43.7089 165.871 44.0899C166.005 44.4709 166.18 45.3065 166.26 45.9465C166.34 46.5865 166.527 47.4526 166.677 47.8709C166.837 48.3212 166.951 48.941 166.956 49.3922L166.964 50.1542L165.781 50.4115C165.13 50.5529 164.332 50.7823 164.007 50.9203C162.098 51.7322 160.977 51.474 161.397 50.3192C161.506 50.0221 161.65 49.3812 161.717 48.8969C161.784 48.4118 161.966 47.6685 162.122 47.2452C162.278 46.8219 162.479 45.9846 162.57 45.3835C162.66 44.7833 162.828 44.1077 162.941 43.8825C163.054 43.6573 163.219 42.9783 163.308 42.3721C163.396 41.7668 163.577 41.0023 163.709 40.6738C163.841 40.3445 164.003 39.7493 164.069 39.3506Z" fill="#811D35"/>
<path fill-rule="evenodd" clip-rule="evenodd" d="M90.7045 33.7621C91.2693 34.1761 92.0455 35.0667 93.7716 37.2831L94.7645 38.5573L94.6851 40.7466C94.5635 44.1085 94.1373 46.3901 93.6298 46.402C93.5589 46.4028 93.2882 46.65 93.0279 46.9506C92.7677 47.2503 92.4124 47.594 92.2394 47.7142C91.6479 48.1231 91.6785 48.7572 92.3259 49.515C93.3812 50.7519 93.7944 51.4029 93.9792 52.1208C94.0813 52.5162 94.2375 52.9183 94.326 53.014C94.4151 53.1105 94.5986 53.6659 94.7352 54.2501C94.8712 54.8334 95.0365 55.354 95.1015 55.4065C95.2531 55.5284 95.5713 56.5139 95.5713 56.8635C95.5713 57.01 95.6956 57.3698 95.8478 57.661C96.1211 58.1851 96.1217 58.1978 95.9096 58.7125C95.5927 59.4821 95.4873 59.5769 94.3884 60.084L93.3825 60.548L93.1802 60.2076C93.0689 60.0205 92.9421 59.6624 92.8991 59.4118C92.8555 59.1604 92.6981 58.7108 92.5478 58.4111C92.3981 58.1114 92.1951 57.4612 92.0982 56.9668C92.0006 56.4724 91.836 55.9458 91.7332 55.7977C91.6297 55.6495 91.4651 55.1195 91.3662 54.6192C91.268 54.1197 91.0858 53.5287 90.9622 53.3078C90.8386 53.086 90.6603 52.6644 90.5659 52.3706C90.4221 51.9236 90.3005 51.8025 89.8184 51.6298C89.5015 51.5155 89.1052 51.292 88.9374 51.1337C88.4396 50.6613 87.1163 50.3294 86.6751 50.5673L86.3114 50.7637L86.3973 54.9062C86.5014 59.9384 86.5509 60.1746 87.5704 60.537C88.2523 60.7791 88.4735 61.1093 88.4735 61.8873C88.4735 62.8533 88.4195 62.8694 85.124 62.8694C81.8897 62.8694 81.2814 62.7348 81.444 62.0549C81.7062 60.9594 81.7296 60.9273 82.5481 60.5624C82.8357 60.4337 83.1259 60.2127 83.1936 60.0705C83.3126 59.819 83.1754 53.0275 82.9119 46.0904C82.8553 44.6089 82.8058 42.2883 82.8019 40.9329C82.7915 37.2112 82.433 36.3747 80.7576 36.1622C79.563 36.0098 79.0562 35.198 79.4934 34.1363C79.82 33.3405 81.6672 32.9705 82.4401 33.5454C82.8253 33.8315 83.5553 33.8374 83.7356 33.5547C84.1064 32.9731 89.8613 33.1449 90.7045 33.7621ZM86.8423 46.0371C86.5261 45.4936 85.9263 37.3839 86.1468 36.6363C86.2626 36.2435 87.5366 36.3172 88.5327 36.7752C88.9881 36.9851 89.547 37.1587 89.7748 37.1604C90.9778 37.1722 91.1606 37.3873 91.3844 39.0526C91.4768 39.7451 91.659 40.5748 91.7878 40.8965C92.1366 41.7676 92.1001 42.726 91.6967 43.2882C90.834 44.492 89.6563 46.4384 89.6563 46.6602C89.6563 47.2537 88.4937 47.3426 87.9387 46.7914C87.7298 46.5849 87.4214 46.3698 87.2522 46.3148C87.0831 46.2597 86.899 46.1345 86.8423 46.0371Z" fill="#811D35"/>
<path d="M113.362 55.5503L113.403 55.8273L113.402 57.9654L113.403 58.2511C113.405 58.6159 113.406 58.9203 113.401 59.1748L113.401 58.8516C113.4 58.4165 113.394 57.7898 113.384 57.0503L113.321 58.4382C113.233 60.3651 113.303 60.2093 112.418 60.4185C111.501 60.6352 111.223 60.8883 111.066 61.6503C110.939 62.2615 111.12 63.0142 111.396 63.0269C112.852 63.0946 115.148 63.3604 115.321 63.4806C116.103 64.0259 117.273 63.9404 117.52 63.3198C117.882 62.4071 117.724 61.652 117.12 61.4107C116.967 61.3497 116.655 61.0466 116.426 60.7376L116.03 60.2026L116.01 60.1755L116.013 59.9928C115.933 58.8662 115.92 56.8001 115.918 52.9403C115.918 52.1659 115.918 51.3193 115.918 50.3936C115.918 50.3754 115.918 50.3571 115.918 50.3389L115.919 42.447V39.449V37.95V36.4509L116.244 36.0556C116.423 35.838 116.776 35.5654 117.029 35.4494C117.824 35.0853 117.997 34.2599 117.442 33.4836C117.186 33.1271 112.045 32.9781 111.377 33.3083C110.347 33.818 110.666 35.0413 111.918 35.3834C112.676 35.5908 112.757 36.0192 112.922 40.6941C113.005 43.0274 113.125 46.1141 113.189 47.5534C113.23 48.4985 113.313 52.447 113.362 55.5503Z" fill="#811D35"/>
<path fill-rule="evenodd" clip-rule="evenodd" d="M4.36702 52.479C4.32033 50.8803 4.22551 48.8462 4.1499 47.8046L4.49986 57.3075L4.55896 55.7113L4.56546 57.6356C4.56746 58.1844 4.56788 58.6262 4.56157 58.9834C4.53701 60.3763 4.4103 60.4844 3.87644 60.636C2.96945 60.8942 2.54979 62.0609 3.15098 62.6552C3.49126 62.9905 9.23833 62.9557 9.63782 62.6154C10.239 62.1032 9.76665 60.8477 8.85901 60.5454C8.52784 60.4345 8.19992 60.2551 8.12965 60.145C7.7731 59.5854 7.66184 51.1642 8.00408 50.6062L8.20838 50.2727L9.09584 50.569C9.58382 50.7324 10.118 50.9948 10.2833 51.1523C10.4485 51.3106 10.768 51.491 10.9931 51.5544C11.5143 51.7001 11.8168 51.9058 11.8168 52.1158C11.8168 52.2063 11.9417 52.4747 12.0953 52.7118C12.2488 52.9488 12.4108 53.4407 12.4557 53.8047C12.5006 54.1688 12.69 54.8156 12.8767 55.2431C13.0634 55.6698 13.2541 56.2811 13.2996 56.6019C13.3452 56.922 13.502 57.413 13.6477 57.6932C13.7941 57.9734 13.9782 58.5542 14.0576 58.9834C14.3042 60.3228 14.8227 60.5912 15.9906 59.9833C17.2926 59.3069 17.7591 58.1555 17.087 57.2801C16.9926 57.1582 16.8033 56.6163 16.6666 56.077C16.5294 55.5369 16.3231 54.9223 16.2073 54.7106C16.0921 54.499 15.936 54.0062 15.8612 53.6151C15.6569 52.5518 14.8306 50.9026 13.9763 49.8545C13.1402 48.8292 13.0179 48.0232 13.634 47.6033C15.2893 46.4765 15.7876 45.3327 15.8638 42.4898C15.8781 41.9725 15.9061 42.3433 15.9269 43.3135C15.931 43.5051 15.9328 43.6866 15.932 43.8586L17.4594 43.6856L16.0142 41.0015C15.9981 40.8744 15.9839 40.4913 15.977 39.9373L15.9568 38.3245L14.9809 37.1257C14.4441 36.467 13.6126 35.4435 13.1337 34.8517C12.6542 34.2608 12.1734 33.7765 12.0654 33.7765C11.9573 33.7765 11.7641 33.6825 11.6359 33.5674C11.1824 33.1619 5.91879 33.073 5.26555 33.4599C4.62207 33.8417 4.0404 33.8654 3.66758 33.5251C2.71245 32.6547 0.446934 33.6876 0.641474 34.905C0.80088 35.9015 0.946623 36.0336 2.01367 36.1546C4.18484 36.401 4.33319 37.1951 4.41256 49.0155C4.44444 53.7175 4.43208 54.692 4.36702 52.479ZM7.72495 42.0115C7.40419 37.5812 7.39118 36.9394 7.61695 36.6465C7.89477 36.285 8.93904 36.3172 9.70744 36.7117C10.049 36.8869 10.7446 37.0918 11.2534 37.1672C12.4063 37.3382 12.364 37.2992 12.5312 38.3583C12.6073 38.8443 12.7693 39.5275 12.8904 39.8772C13.0114 40.2268 13.1721 40.9964 13.2476 41.5873L13.3835 42.6617L12.8259 43.5684C12.5188 44.067 12.1128 44.7147 11.9242 45.0093C11.7348 45.3031 11.58 45.596 11.58 45.6604C11.58 45.7247 11.3497 46.0904 11.0679 46.4731C10.4524 47.3087 9.89743 47.412 9.28453 46.8067C9.08283 46.6077 8.72108 46.3613 8.48099 46.2589C7.9774 46.0439 8.04442 46.4223 7.72495 42.0115Z" fill="#811D35"/>
<path d="M105.863 90.8879C110.071 91.1224 118.17 91.329 126.861 91.423C136.234 91.5246 143.413 91.7328 147.977 92.0368C149.831 92.1595 152.732 92.3322 154.424 92.4186C165.247 92.9757 166.287 93.073 163.237 93.2415C159.988 93.421 150.396 93.6521 139.4 93.8155C133.674 93.9002 127.739 94.0339 126.21 94.1127C124.681 94.1914 121.86 94.3404 119.94 94.4445C115.129 94.7061 83.8325 94.707 79.0093 94.4454C77.09 94.3412 74.2955 94.1914 72.799 94.1127C71.3026 94.0331 65.3401 93.9002 59.5494 93.8164C45.6044 93.614 33.5982 93.2762 33.7407 93.0908C33.7953 93.0205 38.8917 92.7005 44.4072 92.4211C46.3591 92.3229 48.7547 92.1815 49.7307 92.1079C53.1927 91.8471 64.3134 91.5136 75.2239 91.3434C81.3074 91.2486 87.8287 91.1013 89.7156 91.0166C98.9409 90.6018 100.5 90.5891 105.863 90.8879Z" fill="#811D35"/>
<path d="M194.196 33.6867C193.375 33.7203 192.983 33.7204 193.008 33.6866C192.834 33.7322 192.665 33.7761 192.516 33.8146L190.472 33.9348C188.311 34.0626 188.18 34.1075 187.604 34.9211C187.442 35.1488 187.165 35.5332 186.986 35.7753C186.807 36.0175 186.66 36.2706 186.66 36.3375C186.66 36.4543 186.561 36.5991 185.675 37.7784C185.453 38.0747 185.181 38.5463 185.072 38.8257C184.963 39.105 184.796 39.3726 184.702 39.4191C184.464 39.5385 184.487 39.8374 184.813 40.8381C184.967 41.3139 185.154 42.2113 185.228 42.8318C185.301 43.4515 185.474 44.2804 185.611 44.6724C185.748 45.0643 185.928 45.8957 186.012 46.5197C186.075 46.9958 186.032 47.6701 186.113 48.0765C186.136 48.1527 186.158 48.224 186.18 48.2897C186.513 48.4359 186.856 48.5755 187.206 48.709C187.396 48.7038 187.624 48.6978 187.902 48.7073C188.091 48.7089 188.477 48.97 188.653 49.0883L188.672 49.101C189.131 49.4134 189.339 49.3211 190.685 49.5497C191.37 49.6665 192.255 49.9078 192.651 50.0864C193.048 50.2651 193.936 50.5072 194.627 50.6249C196.176 50.8899 196.076 50.7959 196.238 52.1327C196.313 52.7465 196.504 53.7836 196.663 54.4372C197.218 56.7179 197.081 57.3199 195.947 57.5882C195.752 57.634 195.406 57.8295 195.178 58.0217C194.95 58.2139 194.476 58.4577 194.124 58.5635C193.772 58.6694 193.299 58.9191 193.072 59.1189C192.546 59.5837 192.007 59.5812 191.296 59.1121C190.986 58.9081 190.389 58.6567 189.969 58.5525C189.548 58.4492 189.025 58.2249 188.808 58.0556C188.383 57.7228 187.245 57.3656 186.172 57.2259L185.507 57.1395L185.196 57.9946C185.025 58.4645 184.836 58.8886 184.776 58.9369C184.716 58.9851 184.576 59.3873 184.464 59.8309C184.353 60.2745 184.132 60.929 183.974 61.2862C183.432 62.5037 183.78 63.0167 185.15 63.0209L185.946 63.0226L186.18 62.4241C186.527 61.5411 188.217 61.5419 189.707 62.4249C191.247 63.3376 193.817 63.2504 194.283 62.27C194.32 62.1913 194.617 62.0389 194.944 61.9296C195.27 61.8213 195.644 61.6029 195.775 61.4445C195.905 61.2862 196.287 61.0509 196.623 60.9205C196.959 60.791 197.397 60.5268 197.596 60.3346C197.795 60.1425 197.987 60.0172 198.253 59.8868C199.237 59.5602 199.161 58.9745 199.307 54.1244C199.306 53.6896 199.307 53.2286 199.311 52.7406V52L199.589 51.2482L199.659 50.8687L199.244 50.1855C197.847 47.8852 197.469 47.5373 196.049 47.2376C195.486 47.1191 194.833 46.8922 194.598 46.7339C194.364 46.5755 193.72 46.3571 193.167 46.2487C192.614 46.1404 191.895 45.894 191.569 45.7018C191.244 45.5097 190.675 45.3065 190.306 45.2497C189.591 45.1414 189.445 45.0127 189.324 44.3862C189.282 44.1686 189.12 43.7987 188.965 43.5625C188.809 43.3262 188.618 42.8809 188.541 42.5728C188.464 42.2638 188.275 41.8159 188.122 41.5763C187.704 40.9236 187.768 40.5671 188.465 39.6731C188.806 39.2354 189.216 38.6911 189.376 38.4642C190.049 37.5134 190.344 37.3339 191.397 37.2366C192.432 37.1401 193.318 36.942 193.939 36.6677C194.373 36.4763 195.043 36.9885 195.498 37.8588C195.652 38.1535 195.826 38.3947 195.885 38.3947C195.944 38.3947 196.062 38.5827 196.147 38.813C196.232 39.0432 196.409 39.3032 196.54 39.3904C196.672 39.4776 196.898 39.7045 197.043 39.8949C197.188 40.0854 197.391 40.2412 197.494 40.2412C197.691 40.2412 198.726 38.9806 198.726 38.741C198.726 38.6648 198.867 38.4337 199.039 38.2288C200.105 36.9564 200.593 35.5679 200.158 35.0464C199.069 33.7409 199.109 33.7553 198.384 34.3954C197.759 34.9457 197.398 34.9753 197.108 34.5003C196.676 33.79 196.039 33.6122 194.196 33.6867Z" fill="#811D35"/>
</svg>
